<svg xmlns="http://www.w3.org/2000/svg" viewBox="0 0 1270.43 398.13"><defs><style>.cls-1{fill:#31353a;}.cls-2{fill:#ff6f18;}.cls-3{fill:#5fb3d6;}.cls-4{fill:#ec6f26;}.cls-5{fill:#f8f9ec;}.cls-6{fill:#31363a;}.cls-22,.cls-7,.cls-8{fill:#f9fbec;}.cls-8{font-size:19.22px;}.cls-22,.cls-8{font-family:MyriadPro-Regular, Myriad Pro;}.cls-9{letter-spacing:-0.02em;}.cls-10{letter-spacing:0em;}.cls-11{letter-spacing:-0.01em;}.cls-12{letter-spacing:0em;}.cls-13{letter-spacing:-0.01em;}.cls-14{letter-spacing:0em;}.cls-15{letter-spacing:0em;}.cls-16{letter-spacing:0.01em;}.cls-17{letter-spacing:-0.03em;}.cls-18{letter-spacing:-0.01em;}.cls-19{letter-spacing:-0.01em;}.cls-20{letter-spacing:0em;}.cls-21{letter-spacing:0em;}.cls-22{font-size:10.84px;}.cls-23{letter-spacing:-0.01em;}</style></defs><title>Fichier 143</title><g id="Calque_2" data-name="Calque 2"><g id="Calque_1-2" data-name="Calque 1"><rect class="cls-1" x="872.29" width="398.13" height="398.13"/><path class="cls-2" d="M872.29,398.13h78.19c-1.48-2.76-1.71-5.74,2.77-7,4.85-1.36,15,.9,6.89-8.58s-13.1-9.71-9-13.78,10.16-6.1,6.78-10.16-6.1-8.36-13.55-7.9-12,5.87-8.58.68,5.65-8.13,5.65-10.39,2.26-2.71-2.71-4.74-1.35-5.87-13.55-2.94-12.2,8.36-13.33,3.84-5.65-9.94-6.78-12.42,2.26-4.29-3.39-4.52-3.84,1.81-12.65.9-19.31,0-10-5.42,27.16-3.84,22.64-6.55-9.49-3.61-20.1-4.07c-4-.17-6.9-.44-9.24-.46Z"/><path class="cls-3" d="M1028.47,97.54C1010.79,78.7,986.14,75,986.14,75s-2.21.35-29.77-14.89-32-37.57-30.94-47.68S930.19,3,940.89,4.14c6.71.73,10.44-1.51,11-4.14H872.29V52.28c10.61,7.62,65.64,47,63,41.18-2.91-6.4,5.93-5.23,6.4-4.77s8.37,13,20.12,11.28S939.5,79.51,933.57,64.74s13.61,1,13.61,1S972.76,93,973.46,85.09s7.79-5.7,7.79-5.7S1046.15,116.38,1028.47,97.54Z"/><path class="cls-3" d="M1270.43,0h-44.71s-49.45,8-45.5,9.47-.3,4.74-.69,4.74-9.08-2-13.32,3.75,18.16-.79,26.94,3-6.22,5.33-6.22,5.33-22.4-.69-19.34,3-.89,5.72-.89,5.72S1123.47,46.78,1139,47.28s27.54-8.39,27.54-8.39.79-1.09,18.95-6.32,29.51,2.37,33.36,7.11,2,6-3.06,10.07-3.65,8.09,0,7.4,6.91-8.78,6.91-8.78c7.7-1.88,6.71,6.81,6.71,6.81,11.15,1.78,6.12,10.07,6.12,10.07,9.77-.3,15.1-12.14,15.1-12.14,11.73-1.13,18.91,43.86,19.84,50.06Z"/><path class="cls-4" d="M1015.17,127.88c-40.16,2.57-50.27,34.53-48.68,49.3,1.16,10.8,7.72,13.24,11.16,13.77a1.61,1.61,0,0,1,1.23,2.23c-19,44.44-43,41.8-53.49,37.94a12,12,0,0,1-7.32-7.63c-8.06-26,27.9-33.28,27.9-33.28,3.51-1.29,0-1.61,0-1.61-8.82-1-21.59,8.4-21.59,8.4-11.84,6.57-16.61,21.11-14.68,29s13.77,17.12,38,7.72,39.05-43.07,39.05-43.07,5.87-.8,5-3a1.72,1.72,0,0,0-2-.95,1,1,0,0,1-1.07-1.47c5.06-10.08,11.61-37.15,11.61-37.15s2.45-9.53,9.53-13.39S1015.17,127.88,1015.17,127.88Zm-25,31a206.78,206.78,0,0,1-9.36,30.32s-14.77.58-12.26-19.5,22.79-35.34,36.11-34.47C1004.67,135.19,993.86,142.33,990.19,158.84Z"/><rect class="cls-5" x="1175.02" y="194.19" width="3.07" height="15.31"/><rect class="cls-5" x="1175.02" y="188.66" width="3.07" height="15.31"/><rect class="cls-5" x="1176.55" y="186.91" width="3.07" height="17.62" transform="translate(1373.81 -982.36) rotate(90)"/><rect class="cls-5" x="1208.84" y="180.39" width="3.07" height="30.65" transform="translate(1406.09 -1014.66) rotate(90)"/><rect class="cls-5" x="1208.84" y="207.97" width="3.07" height="30.65" transform="translate(1433.67 -987.08) rotate(90)"/><path class="cls-5" d="M1014.46,194.18a15.33,15.33,0,0,0-15.33,15.32h0a15.33,15.33,0,0,0,26.16,10.84l-2.17-2.17a12.25,12.25,0,0,1-20.82-7.13h27.48v-1.53h0A15.33,15.33,0,0,0,1014.46,194.18Zm0,3.07A12.26,12.26,0,0,1,1026.62,208h-24.31A12.26,12.26,0,0,1,1014.46,197.25Z"/><path class="cls-5" d="M1166.44,209.5a15.81,15.81,0,0,0-31.62,0h0A15.33,15.33,0,0,0,1161,220.34l-2.17-2.17a12.26,12.26,0,0,1-20.93-8.67h28.55Zm-28-3.17a12.63,12.63,0,0,1,24.46,0Z"/><rect class="cls-5" x="1162.41" y="209.5" width="3.07"/><path class="cls-5" d="M1172.61,245.84a9.59,9.59,0,0,1,9.59,9.59h2.4a12,12,0,0,0-24,0h2.4A9.59,9.59,0,0,1,1172.61,245.84Z"/><path class="cls-5" d="M1172.61,265a9.59,9.59,0,0,1-9.59-9.59h-2.4a12,12,0,0,0,20.46,8.47l-1.7-1.69A9.56,9.56,0,0,1,1172.61,265Zm9.59-9.59h0Z"/><polygon class="cls-5" points="1184.52 254.23 1161.87 254.23 1161.87 256.63 1184.59 256.63 1184.59 255.43 1184.52 254.23"/><path class="cls-5" d="M1037.48,208.94V194.17h-3.07v14.76h0a15.33,15.33,0,0,0,15.33,15.33V221.2A12.26,12.26,0,0,1,1037.48,208.94Z"/><path class="cls-5" d="M1065.07,208.94h0V194.17H1062V209a12.26,12.26,0,0,1-12.26,12.16v3.07a15.29,15.29,0,0,0,12.26-6.15v6.71h3.07V209S1065.07,209,1065.07,208.94Z"/><path class="cls-5" d="M1119.24,255V243.44h-2.4V255h0a12,12,0,0,0,12,12v-2.4A9.59,9.59,0,0,1,1119.24,255Z"/><path class="cls-5" d="M1140.82,255h0V243.44h-2.4v11.62a9.58,9.58,0,0,1-9.58,9.51V267a12,12,0,0,0,9.58-4.81v5.25h2.4V255.06S1140.82,255,1140.82,255Z"/><rect class="cls-5" x="1062" y="231.46" width="2.4" height="23.97" transform="translate(2126.41 486.88) rotate(180)"/><rect class="cls-5" x="1062" y="243.44" width="2.4" height="23.97" transform="translate(2126.41 510.85) rotate(180)"/><rect class="cls-5" x="1070.77" y="208.54" width="3.07" height="15.33" transform="translate(2144.61 432.41) rotate(180)"/><rect class="cls-5" x="1072.79" y="254.23" width="2.4" height="23.97" transform="translate(807.78 1340.2) rotate(-90)"/><path class="cls-5" d="M1108,243.43v4.82a12,12,0,0,0-9.59-4.82h0a12,12,0,0,0-12,12h0a12,12,0,0,0,21.57,7.17v4.81h2.4v-12h0v-12Zm0,12a9.59,9.59,0,0,1-19.17,0h0a9.59,9.59,0,0,1,9.59-9.59h0a9.59,9.59,0,0,1,9.59,9.59Z"/><path class="cls-5" d="M1202.18,243.87v2.4a9.59,9.59,0,0,1,9.59,9.59V267.4h2.4V255.86h0A12,12,0,0,0,1202.18,243.87Z"/><path class="cls-5" d="M1192.59,248.69v-4.81h-2.4v11.95s0,0,0,0h0V267.4h2.4V255.82a9.59,9.59,0,0,1,9.59-9.55v-2.4A12,12,0,0,0,1192.59,248.69Z"/><path class="cls-5" d="M1148.43,248.24v-4.81H1146v11.94s0,0,0,0h0v12h2.4v-12a9.59,9.59,0,0,1,9.59-9.55v-2.4A12,12,0,0,0,1148.43,248.24Z"/><path class="cls-5" d="M1190.34,221.77a12.26,12.26,0,0,1-12.26-12.26H1175a15.33,15.33,0,0,0,15.33,15.33Z"/><polygon class="cls-5" points="1221.42 251.09 1221.42 255.42 1223.82 255.42 1223.82 251.09 1223.82 245.84 1230.7 245.84 1230.7 243.44 1223.82 243.44 1223.82 239.12 1221.42 239.12 1221.42 243.44 1216.93 243.44 1216.93 245.84 1221.42 245.84 1221.42 251.09"/><path class="cls-5" d="M1223.82,255.42h-2.4a12,12,0,0,0,12,12V265A9.59,9.59,0,0,1,1223.82,255.42Z"/><path class="cls-5" d="M1073.84,200.89v-6.72h-3.07V210s0,0,0,0h0v14.77h3.07V210a12.26,12.26,0,0,1,12.26-12.21v-3.07A15.29,15.29,0,0,0,1073.84,200.89Z"/><path class="cls-5" d="M1113.7,194.73v3.07A12.26,12.26,0,0,1,1126,210.06v14.77H1129V210.06h0A15.33,15.33,0,0,0,1113.7,194.73Z"/><path class="cls-5" d="M1099.9,203.42a15.31,15.31,0,0,0-13.8-8.69v3.07a12.26,12.26,0,0,1,12.26,12.26v14.77h3.07V210.06h0a12.26,12.26,0,0,1,12.26-12.26v-3.07A15.31,15.31,0,0,0,1099.9,203.42Z"/><polygon class="cls-5" points="1225.7 194.34 1195.05 220.78 1195.05 224.82 1225.7 198.38 1225.7 194.34"/><rect class="cls-6" x="0.78" width="814.28" height="398.13"/><rect class="cls-2" x="204.47" y="272.73" width="3.38" height="71.46" transform="translate(412.32 616.92) rotate(180)"/><rect class="cls-7" x="539" y="367.43" width="1.33" height="10.1" transform="translate(167.19 912.14) rotate(-90)"/><path class="cls-2" d="M317.53,39.4c-62.45,4-78.17,53.7-75.69,76.66,1.81,16.79,12,20.59,17.36,21.41a2.51,2.51,0,0,1,1.92,3.47c-29.52,69.09-66.87,65-83.17,59a18.58,18.58,0,0,1-11.39-11.86c-12.54-40.43,43.38-51.75,43.38-51.75,5.45-2,0-2.5,0-2.5-13.71-1.5-33.58,13.06-33.58,13.06-18.42,10.21-25.82,32.83-22.82,45s21.42,26.62,59,12,60.73-67,60.73-67,9.12-1.24,7.73-4.62c-.57-1.39-1.86-1.65-3.18-1.47a1.59,1.59,0,0,1-1.66-2.29c7.87-15.68,18.05-57.77,18.05-57.77S298.12,56,309.13,50,317.53,39.4,317.53,39.4ZM278.7,87.54a321.56,321.56,0,0,1-14.56,47.14s-23,.9-19.07-30.33,35.43-54.95,56.15-53.59C301.22,50.76,284.4,61.87,278.7,87.54Z"/><rect class="cls-7" x="347.47" y="141" width="4.77" height="22.96"/><rect class="cls-7" x="390.36" y="141" width="4.77" height="47.66"/><rect class="cls-7" x="566.1" y="142.51" width="4.77" height="23.81"/><rect class="cls-7" x="566.1" y="133.9" width="4.77" height="23.81"/><rect class="cls-7" x="568.48" y="131.19" width="4.77" height="27.4" transform="translate(715.76 -425.97) rotate(90)"/><rect class="cls-7" x="629.64" y="123.45" width="4.77" height="47.66" transform="translate(779.3 -484.75) rotate(90)"/><rect class="cls-7" x="629.64" y="166.33" width="4.77" height="47.66" transform="translate(822.18 -441.87) rotate(90)"/><path class="cls-7" d="M316.44,147.26a19.07,19.07,0,0,1,19.07,19.07h4.77a23.83,23.83,0,0,0-47.66,0h4.77A19.07,19.07,0,0,1,316.44,147.26Z"/><path class="cls-7" d="M447,252.64a14.91,14.91,0,0,1-14.91-14.91h-3.73a18.63,18.63,0,0,0,37.27,0H461.9A14.91,14.91,0,0,1,447,252.64Z"/><path class="cls-7" d="M316.44,185.39a19.07,19.07,0,0,1-19.07-19.07h-4.77a23.83,23.83,0,0,0,40.68,16.85l-3.37-3.37A19,19,0,0,1,316.44,185.39Zm19.07-19.07h0Z"/><polygon class="cls-7" points="340.14 163.95 295.08 163.95 295.08 168.72 340.27 168.72 340.27 166.32 340.14 163.95"/><path class="cls-7" d="M562.35,222.82a14.91,14.91,0,0,1,14.91,14.91H581a18.63,18.63,0,0,0-37.27,0h3.73A14.91,14.91,0,0,1,562.35,222.82Z"/><path class="cls-7" d="M562.35,252.64a14.91,14.91,0,0,1-14.91-14.91h-3.73a18.63,18.63,0,0,0,31.81,13.18l-2.64-2.63A14.86,14.86,0,0,1,562.35,252.64Zm14.91-14.91h0Z"/><polygon class="cls-7" points="580.88 235.87 545.64 235.87 545.64 239.6 580.98 239.6 580.98 237.73 580.88 235.87"/><path class="cls-7" d="M527,147.26A19.07,19.07,0,0,1,546,166.33h4.77a23.83,23.83,0,1,0-47.66,0h4.77A19.07,19.07,0,0,1,527,147.26Z"/><path class="cls-7" d="M527,185.39a19.07,19.07,0,0,1-19.07-19.07h-4.77a23.83,23.83,0,0,0,40.68,16.85l-3.37-3.37A19,19,0,0,1,527,185.39Zm19.07-19.07h0Z"/><polygon class="cls-7" points="550.68 163.95 505.63 163.95 505.63 168.72 550.82 168.72 550.82 166.32 550.68 163.95"/><path class="cls-7" d="M371.3,183A19.07,19.07,0,0,1,352.23,164h-4.77a23.83,23.83,0,0,0,23.83,23.83Z"/><path class="cls-7" d="M390.37,164A19.07,19.07,0,0,1,371.31,183v4.77h0A23.83,23.83,0,0,0,395.14,164Z"/><rect class="cls-7" x="475.64" y="219.1" width="3.73" height="17.96"/><rect class="cls-7" x="509.19" y="219.1" width="3.73" height="37.27"/><path class="cls-7" d="M494.28,252a14.91,14.91,0,0,1-14.91-14.91h-3.73a18.63,18.63,0,0,0,18.63,18.63Z"/><path class="cls-7" d="M509.19,237A14.91,14.91,0,0,1,494.28,252v3.73h0A18.63,18.63,0,0,0,512.92,237Z"/><rect class="cls-7" x="446.9" y="165.69" width="4.77" height="22.96" transform="translate(898.57 354.35) rotate(180)"/><rect class="cls-7" x="461.9" y="219.09" width="3.73" height="37.27"/><rect class="cls-7" x="390.36" y="200.46" width="3.73" height="37.27" transform="translate(784.46 438.18) rotate(180)"/><rect class="cls-7" x="390.36" y="219.09" width="3.73" height="37.27" transform="translate(784.46 475.45) rotate(180)"/><rect class="cls-7" x="404" y="164.83" width="4.77" height="23.83" transform="translate(812.77 353.49) rotate(180)"/><rect class="cls-7" x="407.14" y="235.86" width="3.73" height="37.27" transform="translate(154.5 663.5) rotate(-90)"/><path class="cls-7" d="M427.84,146.63a19.07,19.07,0,0,1,19.07,19.07h4.77a23.83,23.83,0,0,0-23.83-23.83Z"/><path class="cls-7" d="M447,222.82a14.91,14.91,0,0,1,14.91,14.91h3.73A18.63,18.63,0,0,0,447,219.09Z"/><path class="cls-7" d="M432.08,237.73A14.91,14.91,0,0,1,447,222.82v-3.73h0a18.63,18.63,0,0,0-18.63,18.63Z"/><path class="cls-7" d="M408.76,165.7a19.07,19.07,0,0,1,19.07-19.07v-4.77h0A23.83,23.83,0,0,0,404,165.7Z"/><rect class="cls-7" x="623.24" y="236.21" width="3.73" height="17.96" transform="translate(1250.21 490.38) rotate(180)"/><rect class="cls-7" x="589.7" y="217.58" width="3.73" height="36.59" transform="translate(1183.12 471.75) rotate(180)"/><path class="cls-7" d="M608.34,221.31a14.91,14.91,0,0,1,14.91,14.91H627a18.63,18.63,0,0,0-18.63-18.63Z"/><path class="cls-7" d="M593.42,236.22a14.91,14.91,0,0,1,14.91-14.91v-3.73h0a18.63,18.63,0,0,0-18.63,18.63Z"/><rect class="cls-7" x="521.02" y="219.1" width="3.73" height="37.27" transform="translate(1045.78 475.46) rotate(180)"/><path class="cls-7" d="M524.75,237.73a14.91,14.91,0,0,1,14.91-14.91v-3.73h0A18.63,18.63,0,0,0,521,237.73Z"/><path class="cls-7" d="M589.93,185.39a19.07,19.07,0,0,1-19.07-19.07H566.1a23.83,23.83,0,0,0,23.83,23.83Z"/><rect class="cls-7" x="638.25" y="218.43" width="3.73" height="18.62"/><rect class="cls-7" x="638.25" y="211.7" width="3.73" height="18.62"/><rect class="cls-7" x="640.11" y="209.58" width="3.73" height="21.43" transform="translate(862.27 -421.68) rotate(90)"/><path class="cls-7" d="M656.88,252A14.91,14.91,0,0,1,642,237.05h-3.73a18.63,18.63,0,0,0,18.63,18.63Z"/><rect class="cls-7" x="489.81" y="165.69" width="4.77" height="22.96" transform="translate(984.39 354.35) rotate(180)"/><path class="cls-7" d="M470.75,146.63a19.07,19.07,0,0,1,19.07,19.07h4.77a23.83,23.83,0,0,0-23.83-23.83Z"/><path class="cls-7" d="M451.67,165.7a19.07,19.07,0,0,1,19.07-19.07v-4.77h0a23.83,23.83,0,0,0-23.83,23.83Z"/><polygon class="cls-7" points="655.86 145.14 608.19 186.25 608.19 192.54 655.86 151.43 655.86 145.14"/><path class="cls-3" d="M699.09,135s7-6.85,7.64-9.34c.58-2.11,10.74-10.59,13.82-13.13a4.26,4.26,0,0,0,1.32-1.88c.71-2,1.83-5.82-.22-5.11-2.76,1-13.43,12.58-13.16,13.91s-2.12,3.61-4.09,5-5.57,4.19-5.84,6.48C698.56,131,696.75,135.87,699.09,135Z"/><path class="cls-3" d="M690,72.28s5.55,2.86,5.21,0,1.18-4.71-3.36-4.2-6.89,3-4.87,4S690,72.28,690,72.28Z"/><path class="cls-3" d="M748.32,139.4s5.55,2.86,5.21,0,1.18-4.71-3.36-4.2-6.89,3-4.87,4S748.32,139.4,748.32,139.4Z"/><path class="cls-3" d="M687.76,105.48c-9.91-1.89-16.51-6.39-6.31-7.59s20.26,1.8,16.44,5.1-5,4.5-8.63,5.1-8.71,6.31-10.21,3.3-4.64-4.76-.3-5.92A20.6,20.6,0,0,1,687.76,105.48Z"/><path class="cls-2" d="M104.79,345c-9.91-2.8-16.51-9.48-6.31-11.27s20.26,2.67,16.44,7.57-5,6.68-8.63,7.57-8.71,9.36-10.21,4.9-4.64-7.06-.3-8.78A14.11,14.11,0,0,1,104.79,345Z"/><path class="cls-3" d="M791.45,135.66c-9.91-1.89-16.51-6.39-6.31-7.59s20.26,1.8,16.44,5.1-5,4.5-8.63,5.1-8.71,6.31-10.21,3.3-4.64-4.76-.3-5.92A20.6,20.6,0,0,1,791.45,135.66Z"/><path class="cls-2" d="M0,398.13H75c-1.42-2.65-1.64-5.5,2.66-6.7,4.65-1.3,14.4.87,6.6-8.23S71.68,373.89,75.58,370s9.75-5.85,6.5-9.75-5.85-8-13-7.58-11.48,5.63-8.23.65,5.42-7.8,5.42-10,2.17-2.6-2.6-4.55-1.3-5.63-13-2.82-11.7,8-12.78,3.68-5.41-9.53-6.5-11.91,2.17-4.12-3.25-4.33-3.68,1.73-12.13.87-18.52,0-9.58-5.2,26-3.68,21.72-6.28-9.1-3.47-19.28-3.9c-3.83-.16-6.61-.42-8.87-.44Z"/><path class="cls-3" d="M159.77,99.78C141.68,80.51,116.46,76.7,116.46,76.7S114.2,77.05,86,61.47,53.28,23,54.35,12.69s4.88-9.64,15.82-8.45C77,5,80.86,2.69,81.47,0H0V53.49c10.85,7.79,67.15,48,64.47,42.13-3-6.54,6.07-5.35,6.54-4.88s8.57,13.33,20.58,11.54S68.75,81.34,62.68,66.23,76.6,67.3,76.6,67.3,102.78,95.14,103.49,87s8-5.83,8-5.83S177.85,119.05,159.77,99.78Z"/><path class="cls-3" d="M815.07,0H738.84s-84.3,13.63-77.57,16.15-.5,8.08-1.18,8.08-15.48-3.37-22.72,6.39,31-1.35,45.94,5-10.6,9.09-10.6,9.09-38.2-1.18-33,5-1.51,9.76-1.51,9.76-73.7,20.19-47.28,21,46.94-14.3,46.94-14.3,1.35-1.85,32.31-10.77,50.31,4,56.87,12.11,3.37,10.26-5.22,17.16-6.23,13.8,0,12.62,11.78-15,11.78-15c13.12-3.2,11.44,11.61,11.44,11.61,19,3,10.43,17.16,10.43,17.16,16.66-.5,25.74-20.7,25.74-20.7,20-1.92,32.23,74.78,33.82,85.35Z"/><text class="cls-8" transform="translate(220.09 289.87)"><tspan class="cls-9">P</tspan><tspan x="9.74" y="0">ei</tspan><tspan class="cls-10" x="23.87" y="0">n</tspan><tspan x="34.45" y="0">tu</tspan><tspan class="cls-11" x="51.4" y="0">r</tspan><tspan class="cls-12" x="57.49" y="0">e i</tspan><tspan class="cls-10" x="75.69" y="0">n</tspan><tspan class="cls-13" x="86.28" y="0">t</tspan><tspan x="92.52" y="0">é</tspan><tspan class="cls-14" x="102.15" y="0">r</tspan><tspan x="108.51" y="0">ieur et </tspan><tspan class="cls-15" x="163.64" y="0">e</tspan><tspan class="cls-16" x="173.21" y="0">x</tspan><tspan class="cls-13" x="182.36" y="0">t</tspan><tspan x="188.6" y="0">é</tspan><tspan class="cls-14" x="198.23" y="0">r</tspan><tspan x="204.59" y="0">ieur</tspan><tspan class="cls-17" x="0" y="23.06">P</tspan><tspan x="9.72" y="23.06">apier pei</tspan><tspan class="cls-10" x="79.46" y="23.06">n</tspan><tspan x="90.05" y="23.06">t </tspan><tspan class="cls-14" x="0" y="46.12">R</tspan><tspan x="10.42" y="46.12">e</tspan><tspan class="cls-18" x="20.04" y="46.12">v</tspan><tspan x="29.09" y="46.12">ê</tspan><tspan class="cls-13" x="38.72" y="46.12">t</tspan><tspan x="44.97" y="46.12">eme</tspan><tspan class="cls-10" x="80.25" y="46.12">n</tspan><tspan x="90.83" y="46.12">t de sol </tspan></text><text class="cls-8" transform="translate(557.16 376.35)">06.50.24.88.16</text><text class="cls-8" transform="translate(204.47 376.35)"><tspan class="cls-19">C</tspan><tspan x="10.93" y="0">o</tspan><tspan class="cls-20" x="21.48" y="0">n</tspan><tspan x="32.07" y="0">ta</tspan><tspan class="cls-16" x="47.69" y="0">c</tspan><tspan x="56.55" y="0">t : lau</tspan><tspan class="cls-18" x="99.42" y="0">r</tspan><tspan x="105.51" y="0">e</tspan><tspan class="cls-10" x="115.14" y="0">n</tspan><tspan class="cls-21" x="125.73" y="0">t</tspan><tspan x="132.03" y="0">.jeumetz62@</tspan><tspan class="cls-13" x="235.01" y="0">g</tspan><tspan x="245.64" y="0">mai</tspan><tspan class="cls-11" x="275.42" y="0">l</tspan><tspan x="279.76" y="0">.</tspan><tspan class="cls-13" x="283.74" y="0">c</tspan><tspan x="292.24" y="0">om</tspan></text><text class="cls-22" transform="translate(689.48 376.48)">Si<tspan class="cls-23" x="7.88" y="0">r</tspan><tspan x="11.31" y="0">et : 824 737 340 0011</tspan></text></g></g></svg>