<svg xmlns="http://www.w3.org/2000/svg" viewBox="0 0 162.72 123.05"><defs><style>.cls-1{fill:#fff;}</style></defs><title>logoseul</title><g id="Calque_2" data-name="Calque 2"><g id="Calque_1-2" data-name="Calque 1"><polygon class="cls-1" points="116.09 27.63 112.41 20.98 81.92 77.35 61.24 39.97 61.22 40 57.54 33.35 57.56 33.32 50.23 20.08 50.21 20.09 39.09 0 0 72.26 30.39 72.26 26.85 65.86 10.74 65.86 39.16 13.34 70.84 70.61 70.87 70.6 81.98 90.69 116.09 27.63"/><polygon class="cls-1" points="46.62 59.99 50.3 53.33 80.8 109.71 101.48 72.33 101.49 72.36 105.17 65.7 105.16 65.68 112.48 52.44 112.51 52.45 123.62 32.36 162.72 104.62 132.32 104.62 135.87 98.22 151.97 98.22 123.56 45.7 91.87 102.97 91.85 102.96 80.73 123.05 46.62 59.99"/></g></g></svg>