<svg xmlns="http://www.w3.org/2000/svg" viewBox="0 0 175.96 51.89"><defs><style>.cls-1{fill:#fff;}.cls-2{fill:#e24747;}</style></defs><title>logo</title><g id="Calque_2" data-name="Calque 2"><g id="Calque_1-2" data-name="Calque 1"><polygon class="cls-1" points="48.96 11.65 47.41 8.85 34.55 32.62 25.83 16.86 25.82 16.87 24.27 14.06 24.27 14.05 21.18 8.47 21.18 8.47 16.49 0 0 30.48 12.82 30.48 11.32 27.78 4.53 27.78 16.51 5.63 29.88 29.78 29.89 29.77 34.58 38.25 48.96 11.65"/><polygon class="cls-2" points="19.66 25.3 21.21 22.49 34.08 46.27 42.8 30.5 42.8 30.52 44.36 27.71 44.35 27.7 47.44 22.11 47.45 22.12 52.14 13.65 68.63 44.12 55.81 44.12 57.3 41.42 64.09 41.42 52.11 19.27 38.75 43.43 38.74 43.42 34.05 51.89 19.66 25.3"/><polygon class="cls-2" points="97.55 27.85 94.92 27.85 89.63 27.85 86.99 27.85 81.7 27.85 79.07 27.85 79.06 27.85 79.06 46.33 81.7 46.33 81.7 30.49 86.99 30.49 86.99 46.33 89.63 46.33 89.63 30.49 94.92 30.49 94.92 46.33 97.56 46.33 97.56 27.85 97.55 27.85"/><polygon class="cls-2" points="175.96 27.85 168.04 27.85 165.4 27.85 157.48 27.85 157.48 30.49 165.4 30.49 165.4 46.33 168.04 46.33 168.04 30.49 175.96 30.49 175.96 27.85"/><rect class="cls-1" x="97.38" y="6.93" width="2.42" height="16.94"/><rect class="cls-1" x="119.46" y="6.93" width="2.42" height="16.94"/><path class="cls-1" d="M106,9.45H118.1V7H106a4.82,4.82,0,0,0,0,9.63h7.32a2.4,2.4,0,0,1,0,4.79H101.16v2.42h12.13a4.82,4.82,0,0,0,0-9.63H106a2.4,2.4,0,0,1,0-4.79Z"/><path class="cls-1" d="M91.19,16.57a4.82,4.82,0,1,0,0-9.63H79.06V23.88h2.42V16.57h5.43l6,7.31H96l-6-7.31ZM81.48,9.35h9.71a2.4,2.4,0,0,1,0,4.79H81.48Z"/><polygon class="cls-1" points="140.18 22.92 140.18 6.93 137.76 6.93 137.76 20.11 126.43 6.93 125.66 6.93 123.24 6.93 123.24 23.88 125.66 23.88 125.66 9.75 137.76 23.82 137.76 23.88 137.81 23.88 140.18 23.88 140.18 23.88 140.18 22.92 140.18 22.92"/><path class="cls-1" d="M150,14.15v2.42h5.88a6,6,0,1,1-1.64-5.45L156,9.37a8.47,8.47,0,1,0,2.48,6V14.15Z"/><path class="cls-2" d="M108.28,27.85a9.24,9.24,0,1,0,9.24,9.24A9.24,9.24,0,0,0,108.28,27.85Zm0,15.84a6.6,6.6,0,1,1,6.6-6.6A6.6,6.6,0,0,1,108.28,43.69Z"/><path class="cls-2" d="M134.87,27.85v9.24h0a6.6,6.6,0,1,1-13.2,0V27.85H119v9.24a9.24,9.24,0,0,0,18.48,0V27.85Z"/><path class="cls-2" d="M141.64,46.37V37.13h0a6.6,6.6,0,1,1,13.2,0v9.24h2.64V37.13a9.24,9.24,0,0,0-18.48,0v9.24Z"/></g></g></svg>