<?xml version="1.0" encoding="utf-8"?>
<!-- Generator: Adobe Illustrator 21.0.2, SVG Export Plug-In . SVG Version: 6.00 Build 0)  -->
<svg version="1.1" id="Calque_1" xmlns="http://www.w3.org/2000/svg" xmlns:xlink="http://www.w3.org/1999/xlink" x="0px" y="0px"
	 viewBox="0 0 37.2 37.2" style="enable-background:new 0 0 37.2 37.2;" xml:space="preserve">
<title>Fichier 125</title>
<g id="Calque_2">
	<g id="Calque_1-2">
		<path d="M25.1,22.8c-0.3,0-0.5-0.1-0.7-0.3l-5.9-5.8l-5.9,5.8c-0.3,0.5-0.9,0.6-1.4,0.3c-0.5-0.3-0.6-0.9-0.3-1.4
			c0.1-0.1,0.2-0.2,0.3-0.3l6.5-6.5c0.4-0.4,1-0.4,1.4,0l6.5,6.5c0.4,0.4,0.3,1-0.1,1.4C25.6,22.7,25.4,22.8,25.1,22.8L25.1,22.8z"
			/>
		<path d="M18.6,37.2C8.3,37.2,0,28.8,0,18.6S8.3,0,18.6,0c10.3,0,18.6,8.3,18.6,18.6C37.2,28.8,28.8,37.2,18.6,37.2z M18.6,3
			C10,3,3,10,3,18.6c0,8.6,7,15.6,15.6,15.6c8.6,0,15.6-7,15.6-15.6C34.2,10,27.2,3,18.6,3z"/>
	</g>
</g>
</svg>
