<svg xmlns="http://www.w3.org/2000/svg" viewBox="0 0 455.9 452.01"><defs><style>.cls-1,.cls-5{fill:#494ca2;}.cls-2,.cls-3{fill:#fff;}.cls-3{stroke:#fff;stroke-linecap:round;stroke-width:4px;}.cls-3,.cls-4,.cls-5{stroke-miterlimit:10;}.cls-4{fill:none;stroke:#494ca2;stroke-width:6px;}.cls-5{stroke:#494d9c;stroke-width:5px;}</style></defs><title>cut_1</title><g id="Calque_2" data-name="Calque 2"><g id="Calque_1-2" data-name="Calque 1"><rect class="cls-1" x="3" width="449.9" height="218.06"/><rect class="cls-2" x="72.34" y="131.36" width="6.96" height="34.8"/><polygon class="cls-2" points="184.53 52.6 170.61 52.6 163.65 52.6 149.73 52.6 149.73 59.56 163.65 59.56 163.65 87.4 170.61 87.4 170.61 59.56 184.53 59.56 184.53 52.6"/><polygon class="cls-2" points="269.5 131.36 255.58 131.36 248.62 131.36 234.7 131.36 234.7 138.32 248.62 138.32 248.62 166.16 255.58 166.16 255.58 138.32 269.5 138.32 269.5 131.36"/><path class="cls-2" d="M131,91.2a17.4,17.4,0,1,0,17.4,17.4A17.4,17.4,0,0,0,131,91.2ZM131,119a10.44,10.44,0,1,1,10.44-10.44A10.43,10.43,0,0,1,131,119Z"/><path class="cls-2" d="M172.22,91.2a17.4,17.4,0,1,0,17.4,17.4A17.41,17.41,0,0,0,172.22,91.2Zm0,27.84a10.44,10.44,0,1,1,10.44-10.44A10.44,10.44,0,0,1,172.22,119Z"/><path class="cls-2" d="M213.45,91.2h-17.4V126h17.4a17.4,17.4,0,1,0,0-34.8Zm0,27.84H203V98.16h10.44a10.44,10.44,0,0,1,0,20.88Z"/><path class="cls-2" d="M137.94,131.36h-17.4v34.8h17.4a17.4,17.4,0,1,0,0-34.8Zm0,27.84H127.5V138.32h10.44a10.44,10.44,0,0,1,0,20.88Z"/><path class="cls-2" d="M89.75,80.44a10.44,10.44,0,1,1,7.38-17.82l4.92-4.92a17.4,17.4,0,1,0,0,24.61l-4.92-4.92A10.4,10.4,0,0,1,89.75,80.44Z"/><path class="cls-2" d="M136.33,52.6V70a10.44,10.44,0,0,1-20.88,0V52.6h-7V70a17.4,17.4,0,1,0,34.8,0V52.6Z"/><path class="cls-2" d="M186.4,130.93v17.4a10.44,10.44,0,0,1-20.88,0h0v-17.4h-7v17.4a17.4,17.4,0,0,0,34.8,0v-17.4Z"/><path class="cls-2" d="M100.18,91.2v24.36a3.48,3.48,0,1,1-7,0V91.2h-7v24.36a3.48,3.48,0,0,1-7,0h0V91.2h-7v24.36a10.43,10.43,0,0,0,17.4,7.77,10.43,10.43,0,0,0,17.4-7.77V91.2Z"/><path class="cls-2" d="M321.18,138.32h24.37v-7H321.18a10.45,10.45,0,0,0-10.44,10.44h0a10.38,10.38,0,0,0,2.68,7,10.4,10.4,0,0,0-2.68,7h0a10.44,10.44,0,0,0,10.44,10.44h24.37v-7H321.18a3.48,3.48,0,0,1,0-7h24.37v-7H321.18a3.48,3.48,0,0,1,0-7Z"/><path class="cls-2" d="M359.2,138.32h24.37v-7H359.2a10.42,10.42,0,0,0-7.76,17.4,10.38,10.38,0,0,0-2.68,7h0a10.44,10.44,0,0,0,10.44,10.44h24.37v-7H359.2a3.48,3.48,0,1,1,0-7h24.37v-7H359.2a3.48,3.48,0,0,1,0-7Z"/><path class="cls-2" d="M99.92,131.36a17.4,17.4,0,0,0-17.4,17.4h0v17.4h7v-17.4a10.44,10.44,0,0,1,20.88,0h0v17.4h7v-17.4A17.4,17.4,0,0,0,99.92,131.36Z"/><path class="cls-2" d="M207.13,138.32h24.35v-7H207.13a10.44,10.44,0,0,0,0,20.88H221a3.48,3.48,0,0,1,3.48,3.48h0A3.47,3.47,0,0,1,221,159.2H196.69v7H221a10.44,10.44,0,0,0,0-20.88H207.13a3.48,3.48,0,0,1,0-7Z"/><path class="cls-2" d="M297.08,152.24h0a10.44,10.44,0,1,0,0-20.88H272.72v34.8h7V152.24h8.7l10.45,13.92h8.7Zm-17.4-7v-7h17.4a3.48,3.48,0,1,1,0,7h-17.4Z"/><polygon class="cls-3" points="382.57 114.7 372.36 121.41 353.14 107.56 339.1 121.12 327.13 101.97 337.67 101.97 320.39 76.08 328.35 76.08 309.74 52.59 309.74 52.59 309.13 51.89 308.53 52.59 308.53 52.59 289.92 76.08 297.88 76.08 280.6 101.97 291.14 101.97 279.17 121.12 265.12 107.56 245.91 121.41 235.7 114.7 234.7 115.22 245.96 122.62 264.96 108.91 279.47 122.92 293.05 101.18 282.55 101.18 299.83 75.3 292.01 75.3 309.13 53.69 326.25 75.3 318.43 75.3 335.71 101.18 325.22 101.18 338.8 122.92 353.3 108.91 372.31 122.62 383.57 115.22 382.57 114.7"/><rect class="cls-4" x="3" y="230.95" width="449.9" height="218.06"/><rect class="cls-1" x="72.34" y="362.31" width="6.96" height="34.8"/><polygon class="cls-1" points="184.53 283.55 170.61 283.55 163.65 283.55 149.73 283.55 149.73 290.51 163.65 290.51 163.65 318.35 170.61 318.35 170.61 290.51 184.53 290.51 184.53 283.55"/><polygon class="cls-1" points="269.5 362.31 255.58 362.31 248.62 362.31 234.7 362.31 234.7 369.27 248.62 369.27 248.62 397.11 255.58 397.11 255.58 369.27 269.5 369.27 269.5 362.31"/><path class="cls-1" d="M131,322.15a17.4,17.4,0,1,0,17.4,17.4A17.4,17.4,0,0,0,131,322.15ZM131,350a10.44,10.44,0,1,1,10.44-10.44A10.44,10.44,0,0,1,131,350Z"/><path class="cls-1" d="M172.22,322.15a17.4,17.4,0,1,0,17.4,17.4A17.41,17.41,0,0,0,172.22,322.15Zm0,27.84a10.44,10.44,0,1,1,10.44-10.44A10.45,10.45,0,0,1,172.22,350Z"/><path class="cls-1" d="M213.45,322.15h-17.4V357h17.4a17.4,17.4,0,0,0,0-34.8Zm0,27.84H203V329.11h10.44a10.44,10.44,0,0,1,0,20.88Z"/><path class="cls-1" d="M137.94,362.31h-17.4v34.8h17.4a17.4,17.4,0,0,0,0-34.8Zm0,27.84H127.5V369.27h10.44a10.44,10.44,0,0,1,0,20.88Z"/><path class="cls-1" d="M89.75,311.39a10.44,10.44,0,1,1,7.38-17.82l4.92-4.92a17.4,17.4,0,1,0,0,24.61l-4.92-4.93A10.41,10.41,0,0,1,89.75,311.39Z"/><path class="cls-1" d="M136.33,283.55V301a10.44,10.44,0,0,1-20.88,0v-17.4h-7V301a17.4,17.4,0,1,0,34.8,0v-17.4Z"/><path class="cls-1" d="M186.4,361.88v17.4a10.44,10.44,0,1,1-20.88,0h0v-17.4h-7v17.4a17.4,17.4,0,1,0,34.8,0v-17.4Z"/><path class="cls-1" d="M100.18,322.15v24.36a3.48,3.48,0,0,1-7,0V322.15h-7v24.36a3.48,3.48,0,0,1-7,0h0V322.15h-7v24.36a10.42,10.42,0,0,0,17.4,7.76,10.42,10.42,0,0,0,17.4-7.76V322.15Z"/><path class="cls-1" d="M321.18,369.27h24.37v-7H321.18a10.44,10.44,0,0,0-10.44,10.44h0a10.38,10.38,0,0,0,2.68,7,10.38,10.38,0,0,0-2.68,7h0a10.44,10.44,0,0,0,10.44,10.44h24.37v-7H321.18a3.48,3.48,0,0,1,0-7h24.37v-7H321.18a3.48,3.48,0,0,1,0-7Z"/><path class="cls-1" d="M359.2,369.27h24.37v-7H359.2a10.42,10.42,0,0,0-7.76,17.4,10.38,10.38,0,0,0-2.68,7h0a10.44,10.44,0,0,0,10.44,10.44h24.37v-7H359.2a3.48,3.48,0,0,1,0-7h24.37v-7H359.2a3.48,3.48,0,1,1,0-7Z"/><path class="cls-1" d="M99.92,362.31a17.4,17.4,0,0,0-17.4,17.4h0v17.4h7v-17.4a10.44,10.44,0,0,1,20.88,0h0v17.4h7v-17.4A17.4,17.4,0,0,0,99.92,362.31Z"/><path class="cls-1" d="M207.13,369.27h24.35v-7H207.13a10.44,10.44,0,0,0,0,20.88H221a3.48,3.48,0,0,1,3.48,3.48h0a3.48,3.48,0,0,1-3.48,3.48H196.69v7H221a10.44,10.44,0,1,0,0-20.88H207.13a3.48,3.48,0,1,1,0-7Z"/><path class="cls-1" d="M297.08,383.19h0a10.44,10.44,0,1,0,0-20.88H272.72v34.8h7V383.19h8.7l10.45,13.92h8.7Zm-17.4-7v-7h17.4a3.48,3.48,0,0,1,0,7h-17.4Z"/><polygon class="cls-5" points="382.57 345.65 372.36 352.36 353.14 338.5 339.1 352.07 327.13 332.91 337.67 332.91 320.39 307.03 328.35 307.03 309.74 283.54 309.74 283.54 309.13 282.84 308.53 283.54 308.53 283.54 289.92 307.03 297.88 307.03 280.6 332.91 291.14 332.91 279.17 352.07 265.12 338.5 245.91 352.36 235.7 345.65 234.7 346.17 245.96 353.57 264.96 339.86 279.47 353.86 293.05 332.13 282.55 332.13 299.83 306.24 292.01 306.24 309.13 284.63 326.25 306.24 318.43 306.24 335.71 332.13 325.22 332.13 338.8 353.86 353.3 339.86 372.31 353.57 383.57 346.17 382.57 345.65"/></g></g></svg>