<svg xmlns="http://www.w3.org/2000/svg" viewBox="0 0 468.2 192.05"><defs><style>.cls-1{fill:#494ca2;}</style></defs><title>Fichier 150</title><g id="Calque_2" data-name="Calque 2"><g id="Calque_1-2" data-name="Calque 1"><path class="cls-1" d="M454.49,109.48a8.79,8.79,0,0,1-.05-4.9,9.14,9.14,0,0,1,2.58-4.4,88,88,0,0,1,6.52,7.71,8.55,8.55,0,0,1,1.54,3.29l1.34.21a10.05,10.05,0,0,0-1.58-3.86,9.38,9.38,0,0,0,2.38-3.28,10.8,10.8,0,0,0,1-4.07,12.09,12.09,0,0,0-.59-4.1h-1.36a9.94,9.94,0,0,1,.52,5.53,9.22,9.22,0,0,1-2.67,4.9c-1-1.36-2.17-2.69-3.26-4l-1.66-1.87c-.57-.62-1.16-1.22-1.75-1.81a9.28,9.28,0,0,1-1.91-2.78h-1.36a10.34,10.34,0,0,0,2,3.21,12.35,12.35,0,0,0-2.2,3,11,11,0,0,0-1,3.43,10.14,10.14,0,0,0,.22,3.56Z"/><path class="cls-1" d="M451.28,122.51a9.34,9.34,0,0,1,4-8.76c.91,1.36,1.82,2.76,2.71,4.21s1.67,2.92,2.49,4.45a8.44,8.44,0,0,1,1,3.49l1.29.43a11.93,11.93,0,0,0-.23-2.08,10.94,10.94,0,0,0-.7-2,10.19,10.19,0,0,0,2.89-2.85,12.19,12.19,0,0,0,1.61-3.87,11.82,11.82,0,0,0,0-4.15l-1.34-.22a9.46,9.46,0,0,1-3.79,10L460,118.89c-.43-.74-.89-1.47-1.33-2.19-.92-1.44-1.77-2.82-2.77-4.18a9.32,9.32,0,0,1-1.47-3l-1.34-.21a10.46,10.46,0,0,0,1.5,3.49,10.65,10.65,0,0,0-4.24,5.8,12.21,12.21,0,0,0-.36,3.54Z"/><path class="cls-1" d="M446,134.86a9.53,9.53,0,0,1,5.35-8,86.48,86.48,0,0,1,3.77,9.4,9.31,9.31,0,0,1,.39,3.59l1.2.63a10.52,10.52,0,0,0-.24-4.15,10.86,10.86,0,0,0,3.29-2.37,10.72,10.72,0,0,0,2.2-3.56,10.37,10.37,0,0,0,.72-4.09l-1.29-.42a9.87,9.87,0,0,1-.2,2.81,10.34,10.34,0,0,1-1.05,2.61,9.05,9.05,0,0,1-4.08,3.8c-.59-1.64-1.16-3.22-1.81-4.78s-1.36-3.1-2.06-4.58a9.85,9.85,0,0,1-1-3.25l-1.29-.43a12,12,0,0,0,.92,3.69,10.32,10.32,0,0,0-3,2.12,9.47,9.47,0,0,0-2.09,2.92,10.37,10.37,0,0,0-.94,3.43Z"/><path class="cls-1" d="M438.87,146.22a8.92,8.92,0,0,1,2.23-4.37,9.67,9.67,0,0,1,4.33-2.68c.49,1.61.85,3.2,1.23,4.85l.53,2.5c.16.83.29,1.67.42,2.52a9,9,0,0,1-.16,3.63l1.09.81a10.63,10.63,0,0,0,.4-4.15,9.74,9.74,0,0,0,3.63-1.8,11.05,11.05,0,0,0,4.12-7.07l-1.2-.63A9.71,9.71,0,0,1,453.4,145a9.44,9.44,0,0,1-4.65,3.08,83.1,83.1,0,0,0-2.34-9.87,10.91,10.91,0,0,1-.42-3.36l-1.2-.63a11.87,11.87,0,0,0,.3,3.78,10.73,10.73,0,0,0-5.84,4.17,9.53,9.53,0,0,0-1.46,3.25Z"/><path class="cls-1" d="M430,156.27a9.3,9.3,0,0,1,7.62-5.9c.18,1.63.32,3.29.44,5s.12,3.36.13,5.1a8.3,8.3,0,0,1-.75,3.54l.94,1a10.79,10.79,0,0,0,.76-1.95,11.23,11.23,0,0,0,.31-2.08,10.06,10.06,0,0,0,3.88-1.18,11,11,0,0,0,5.21-6.32l-1.09-.81a9.5,9.5,0,0,1-8,7l-.05-2.55-.17-2.56c-.13-1.69-.25-3.32-.5-5a9.48,9.48,0,0,1,.13-3.38l-1.08-.81a10.27,10.27,0,0,0-.31,3.78,11.39,11.39,0,0,0-3.56,1.05,10.88,10.88,0,0,0-2.89,2.12,8.24,8.24,0,0,0-1.1,1.41,9.84,9.84,0,0,0-.88,1.55Z"/><path class="cls-1" d="M419.57,164.78a9.31,9.31,0,0,1,3.5-3.44,8.79,8.79,0,0,1,2.34-.89,8.9,8.9,0,0,1,2.61-.29,85.69,85.69,0,0,1-1,10.07,9.38,9.38,0,0,1-1.32,3.37l.77,1.12a10.54,10.54,0,0,0,1.71-3.79,10.62,10.62,0,0,0,7.61-2.7,10.41,10.41,0,0,0,2.53-3.29l-.94-1a9.89,9.89,0,0,1-1.48,2.4,10.69,10.69,0,0,1-2.14,1.83,9.05,9.05,0,0,1-5.38,1.46c.25-1.72.47-3.39.62-5.07s.23-3.37.29-5a10.33,10.33,0,0,1,.65-3.34l-.94-1a12,12,0,0,0-.9,3.7,10.27,10.27,0,0,0-3.66.49,9.13,9.13,0,0,0-3.2,1.62,9.7,9.7,0,0,0-2.42,2.61Z"/><path class="cls-1" d="M408,171.52a8.87,8.87,0,0,1,4-2.83,9.5,9.5,0,0,1,5.08-.37c-.31,1.65-.73,3.21-1.16,4.86-.22.82-.44,1.64-.69,2.46l-.79,2.43a8.83,8.83,0,0,1-1.83,3.14l.59,1.23a10.58,10.58,0,0,0,2.28-3.5,9.59,9.59,0,0,0,4.06.09,10.3,10.3,0,0,0,3.89-1.52,10.52,10.52,0,0,0,3-2.83l-.77-1.12a9.85,9.85,0,0,1-4.24,3.61,9.49,9.49,0,0,1-5.55.57,85.87,85.87,0,0,0,2.5-9.83,10.55,10.55,0,0,1,1.18-3.17l-.77-1.11a11.72,11.72,0,0,0-1.49,3.49,12.07,12.07,0,0,0-3.69-.12,10.81,10.81,0,0,0-3.41,1.1,9.86,9.86,0,0,0-2.81,2.2Z"/><path class="cls-1" d="M395.41,176.28a9.32,9.32,0,0,1,9.48-1.68c-.59,1.53-1.24,3.07-1.92,4.63s-1.46,3-2.25,4.57a8.42,8.42,0,0,1-2.32,2.79l.38,1.3a11.51,11.51,0,0,0,1.58-1.37,10.88,10.88,0,0,0,1.24-1.7,10,10,0,0,0,4,.76,11.86,11.86,0,0,0,4.1-.87,12.16,12.16,0,0,0,3.45-2.32l-.59-1.22a9.49,9.49,0,0,1-10.35,2.52l1.14-2.28,1.05-2.34c.67-1.57,1.32-3.06,1.87-4.65a9.19,9.19,0,0,1,1.68-2.94l-.59-1.23a10.36,10.36,0,0,0-2,3.22,11.22,11.22,0,0,0-3.63-.73,11,11,0,0,0-3.55.53,8.86,8.86,0,0,0-1.63.74,9.51,9.51,0,0,0-1.49,1Z"/><path class="cls-1" d="M382.26,179a8.67,8.67,0,0,1,2.27-1,9.08,9.08,0,0,1,2.43-.4,10,10,0,0,1,4.93,1.27,88.07,88.07,0,0,1-5.6,8.44,9.24,9.24,0,0,1-2.74,2.36l.16,1.34A10,10,0,0,0,387,188.4a10.62,10.62,0,0,0,3.82,1.38,11,11,0,0,0,4.18-.21,10.31,10.31,0,0,0,3.77-1.73l-.38-1.3A10.15,10.15,0,0,1,396,188a10.76,10.76,0,0,1-2.75.62,9,9,0,0,1-5.44-1.21c1-1.42,2-2.77,2.91-4.2s1.77-2.87,2.59-4.29a10.07,10.07,0,0,1,2.12-2.66l-.37-1.3a11.93,11.93,0,0,0-2.52,2.85A10.32,10.32,0,0,0,389,176.5a9.63,9.63,0,0,0-3.59-.06,10.76,10.76,0,0,0-3.36,1.18Z"/><path class="cls-1" d="M368.83,179.51a9.3,9.3,0,0,1,4.87-.64,8.38,8.38,0,0,1,2.41.69,10.32,10.32,0,0,1,2.26,1.35l-1.61,1.92c-.55.62-1.11,1.23-1.68,1.85-1.15,1.21-2.34,2.49-3.59,3.65a9.26,9.26,0,0,1-3.07,1.91l-.06,1.35a10.74,10.74,0,0,0,3.65-2A10.56,10.56,0,0,0,379.7,192a12.89,12.89,0,0,0,2.08-.34,10.32,10.32,0,0,0,1.93-.76l-.17-1.34a9.49,9.49,0,0,1-10.61-.87q1.85-1.84,3.55-3.69c1.13-1.25,2.21-2.56,3.25-3.83a11,11,0,0,1,2.52-2.27l-.16-1.34a10,10,0,0,0-1.55,1.08,9.57,9.57,0,0,0-1.39,1.32,11.24,11.24,0,0,0-3.22-1.82,9.27,9.27,0,0,0-3.54-.61,9.46,9.46,0,0,0-3.5.62Z"/><path class="cls-1" d="M355.5,177.94a8.86,8.86,0,0,1,4.9.13,9.7,9.7,0,0,1,4.29,2.75c-1.25,1.13-2.52,2.15-3.85,3.19s-2.71,2.09-4.12,3a9.63,9.63,0,0,1-3.35,1.42l-.27,1.33a11,11,0,0,0,3.93-1.43,9.61,9.61,0,0,0,3.19,2.5,11.59,11.59,0,0,0,1.93.77,9.82,9.82,0,0,0,2.09.35,10.2,10.2,0,0,0,4.13-.44l.05-1.35a9.82,9.82,0,0,1-5.55.33,9.57,9.57,0,0,1-4.79-2.86,86.81,86.81,0,0,0,7.9-6.37,10.75,10.75,0,0,1,2.86-1.83l.05-1.35a11.73,11.73,0,0,0-3.29,1.9,10.55,10.55,0,0,0-6.28-3.47,8.9,8.9,0,0,0-3.56.07Z"/><path class="cls-1" d="M342.6,174.21a9,9,0,0,1,4.81.94,9.2,9.2,0,0,1,3.79,3.41,86.22,86.22,0,0,1-8.86,4.84,8.71,8.71,0,0,1-3.53.85l-.48,1.26a10,10,0,0,0,4.1-.76,10.48,10.48,0,0,0,6.54,4.76,12.1,12.1,0,0,0,4.14.23l.27-1.33a10,10,0,0,1-5.53-.59,9.15,9.15,0,0,1-4.27-3.61c1.54-.72,3.07-1.57,4.53-2.39l2.17-1.25c.72-.44,1.43-.9,2.12-1.35a9.47,9.47,0,0,1,3.11-1.33l.26-1.33a10.66,10.66,0,0,0-3.54,1.34,12.14,12.14,0,0,0-2.47-2.76,11.56,11.56,0,0,0-3.15-1.7,10.89,10.89,0,0,0-3.53-.5Z"/><path class="cls-1" d="M330.48,168.45a9,9,0,0,1,2.43.56,8,8,0,0,1,2.17,1.14,9.8,9.8,0,0,1,3.18,4c-1.51.62-3.08,1.25-4.67,1.82s-3.2,1.05-4.87,1.55a8.83,8.83,0,0,1-3.61.25l-.67,1.17a9.73,9.73,0,0,0,4.16-.08,11,11,0,0,0,2.22,3.41,12,12,0,0,0,3.46,2.34,11.44,11.44,0,0,0,4.06.88l.48-1.27a9.5,9.5,0,0,1-5.36-1.48,9.8,9.8,0,0,1-2.15-1.8,9.47,9.47,0,0,1-1.48-2.44,82.17,82.17,0,0,0,9.5-3.48,9.41,9.41,0,0,1,3.29-.84l.48-1.27a10.55,10.55,0,0,0-3.72.78,10.57,10.57,0,0,0-4.83-5.32,11.07,11.07,0,0,0-3.39-1.07Z"/><path class="cls-1" d="M319.42,160.84a9.28,9.28,0,0,1,6.78,6.83l-2.44.57c-.81.17-1.63.32-2.45.47-1.65.28-3.38.59-5.06.76a9.6,9.6,0,0,1-3.62-.32l-.85,1a10.78,10.78,0,0,0,4.12.58,10.49,10.49,0,0,0,4.7,6.57,9.82,9.82,0,0,0,3.86,1.53l.68-1.18a9.49,9.49,0,0,1-8-7.06c1.72-.25,3.41-.52,5.05-.82s3.31-.72,4.9-1.12a10.65,10.65,0,0,1,3.39-.29l.67-1.18a9.78,9.78,0,0,0-1.88-.06,10.46,10.46,0,0,0-1.91.22,11.2,11.2,0,0,0-1.48-3.38,9.31,9.31,0,0,0-2.46-2.62,9.12,9.12,0,0,0-3.17-1.6Z"/><path class="cls-1" d="M309.73,151.53a9,9,0,0,1,3.82,3.08,9.26,9.26,0,0,1,1.77,4.77,86.73,86.73,0,0,1-10.1.17,8.36,8.36,0,0,1-3.51-.89l-1,.9a9.88,9.88,0,0,0,4,1.23,10.41,10.41,0,0,0,3.57,7.24,11.13,11.13,0,0,0,3.56,2.13l.85-1A9.84,9.84,0,0,1,308,166a9.19,9.19,0,0,1-2.09-5.17c1.69.08,3.44,0,5.12,0l2.5-.1,2.51-.21a9.84,9.84,0,0,1,3.37.27l.86-1.05a10.89,10.89,0,0,0-3.77-.47,12.21,12.21,0,0,0-.9-3.59,11.2,11.2,0,0,0-2-3,10.72,10.72,0,0,0-2.88-2.09Z"/><path class="cls-1" d="M301.65,140.81a9.76,9.76,0,0,1,3.29,3.63,9.78,9.78,0,0,1,1,5c-1.63-.15-3.32-.31-5-.55s-3.33-.55-5-.88a9,9,0,0,1-3.31-1.45l-1.15.73a10,10,0,0,0,3.73,1.85,10.94,10.94,0,0,0,.39,4.05,11.64,11.64,0,0,0,2,3.67,11.08,11.08,0,0,0,3.18,2.67l1-.9a9.57,9.57,0,0,1-4.07-3.8,9.22,9.22,0,0,1-1.05-2.6,9.58,9.58,0,0,1-.19-2.83,88.71,88.71,0,0,0,10,1.32,9.46,9.46,0,0,1,3.31.78l1-.9a10.42,10.42,0,0,0-3.66-1,10.52,10.52,0,0,0-.32-3.7,10.27,10.27,0,0,0-1.5-3.26,10.87,10.87,0,0,0-2.5-2.52Z"/><path class="cls-1" d="M295.38,128.94a9.28,9.28,0,0,1,2.84,9.2l-2.43-.63-2.39-.73c-1.6-.5-3.26-1-4.83-1.67a9.35,9.35,0,0,1-3.06-2l-1.25.53a10.83,10.83,0,0,0,3.4,2.43,9.82,9.82,0,0,0-.25,4,11.06,11.06,0,0,0,.47,2,12.47,12.47,0,0,0,.9,1.93,13,13,0,0,0,1.2,1.73,10.6,10.6,0,0,0,1.51,1.41l1.14-.73a9.56,9.56,0,0,1-3.42-4.39,9.42,9.42,0,0,1-.37-5.56c1.64.58,3.27,1.12,4.86,1.61s3.27.9,4.86,1.28a11.07,11.07,0,0,1,3.13,1.31l1.15-.73a11.4,11.4,0,0,0-1.64-.93,10.17,10.17,0,0,0-1.8-.69,10.48,10.48,0,0,0-.71-7.13,9,9,0,0,0-2.07-2.9Z"/><path class="cls-1" d="M291.13,116.21a8.93,8.93,0,0,1,1.95,4.49,9.17,9.17,0,0,1-.66,5,83.64,83.64,0,0,1-9-4.55,8.39,8.39,0,0,1-2.7-2.42l-1.32.32a9.77,9.77,0,0,0,3,2.94,10.49,10.49,0,0,0-.21,8.09,11.59,11.59,0,0,0,2.17,3.54l1.24-.53a10,10,0,0,1-2.66-4.89,9.17,9.17,0,0,1,.56-5.56c1.46.86,3,1.63,4.54,2.38l2.26,1.07,2.31,1a9.54,9.54,0,0,1,2.86,1.8l1.25-.54a10.76,10.76,0,0,0-3.12-2.15,12,12,0,0,0,.87-3.6,11,11,0,0,0-.39-3.56,10.69,10.69,0,0,0-1.58-3.19Z"/><path class="cls-1" d="M289,103a9.36,9.36,0,0,1-.26,9.64c-1.38-.9-2.77-1.83-4.16-2.82s-2.67-2-4-3.12a8.53,8.53,0,0,1-2.26-2.83l-1.35.11a11.17,11.17,0,0,0,1,1.82,10.34,10.34,0,0,0,1.41,1.55,10.73,10.73,0,0,0-1.55,3.76,12.05,12.05,0,0,0,0,4.19,11.34,11.34,0,0,0,1.58,3.84l1.32-.32a9.53,9.53,0,0,1-1.84-5.26,10.42,10.42,0,0,1,.28-2.79,9,9,0,0,1,1.16-2.6c1.34,1.08,2.67,2.11,4.09,3.07s2.74,1.91,4.17,2.77a9.47,9.47,0,0,1,2.56,2.24l1.31-.33a10.44,10.44,0,0,0-2.75-2.62,10.59,10.59,0,0,0,1.64-7,8.71,8.71,0,0,0-.4-1.75,8.94,8.94,0,0,0-.64-1.65Z"/><path class="cls-1" d="M289,89.52a8.68,8.68,0,0,1,.53,2.43,8.12,8.12,0,0,1-.09,2.46A9.94,9.94,0,0,1,287.2,99c-1.21-1.1-2.49-2.25-3.65-3.44s-2.34-2.44-3.5-3.73a8.71,8.71,0,0,1-1.77-3.15l-1.36-.1a9.83,9.83,0,0,0,1.87,3.72,10.76,10.76,0,0,0-2.12,3.46,11.17,11.17,0,0,0-.62,4.13,10.36,10.36,0,0,0,.94,4l1.35-.11a9,9,0,0,1-1-5.47,8.87,8.87,0,0,1,2.27-5.09c1.18,1.28,2.3,2.5,3.54,3.68s2.45,2.32,3.68,3.41A10.07,10.07,0,0,1,289,103l1.35-.11a11.81,11.81,0,0,0-2.29-3A10.34,10.34,0,0,0,290,96.66a9.58,9.58,0,0,0,.77-3.51,11,11,0,0,0-.48-3.53Z"/><path class="cls-1" d="M291.09,76.26a9.3,9.3,0,0,1-.33,4.89,8.56,8.56,0,0,1-1.16,2.22,9.78,9.78,0,0,1-1.76,1.95c-1-1.28-2.1-2.61-3-4s-2-2.79-2.87-4.24a9.31,9.31,0,0,1-1.25-3.4l-1.32-.32a10.83,10.83,0,0,0,1.23,4,10.64,10.64,0,0,0-3.89,7.07,11.53,11.53,0,0,0-.08,2.11,12.5,12.5,0,0,0,.36,2l1.35.11a9.47,9.47,0,0,1,3-10.23c1,1.45,1.92,2.85,2.9,4.2s2.07,2.68,3.12,3.95A11.08,11.08,0,0,1,289,89.52l1.35.11a10.57,10.57,0,0,0-.76-1.73,10.79,10.79,0,0,0-1-1.63A10.74,10.74,0,0,0,291,83.48a9,9,0,0,0,1.31-3.34,9.69,9.69,0,0,0,.09-3.56Z"/><path class="cls-1" d="M295.32,63.52a8.9,8.9,0,0,1-1.12,4.78,9.59,9.59,0,0,1-3.55,3.64c-.87-1.44-1.6-2.9-2.36-4.41l-1.12-2.3-1-2.34a9,9,0,0,1-.72-3.57l-1.25-.53a10.66,10.66,0,0,0,.61,4.13,9.52,9.52,0,0,0-3.09,2.62,10.26,10.26,0,0,0-1.92,3.73,10.58,10.58,0,0,0-.39,4.13l1.32.32a9.76,9.76,0,0,1,.79-5.51,9.48,9.48,0,0,1,3.77-4.11,83,83,0,0,0,4.65,9,11,11,0,0,1,1.21,3.16l1.32.33a11.75,11.75,0,0,0-1.2-3.6,12.31,12.31,0,0,0,2.84-2.36,10.33,10.33,0,0,0,1.82-3.09,9.49,9.49,0,0,0,.65-3.5Z"/><path class="cls-1" d="M301.57,51.64a9.32,9.32,0,0,1-6,7.54c-.56-1.53-1.09-3.11-1.61-4.73s-.92-3.24-1.35-4.92a8.37,8.37,0,0,1-.11-3.62l-1.15-.73a11.29,11.29,0,0,0-.27,2.08,10.5,10.5,0,0,0,.2,2.09,10.57,10.57,0,0,0-6,5.44,12.15,12.15,0,0,0-1.05,4l1.25.53a9.5,9.5,0,0,1,6.08-8.75c.22.84.43,1.66.66,2.47l.77,2.45c.53,1.61,1,3.16,1.68,4.72a9.28,9.28,0,0,1,.68,3.31l1.25.53a10.31,10.31,0,0,0-.6-3.74,11.93,11.93,0,0,0,3.2-1.86,11.61,11.61,0,0,0,1.25-1.28,9.38,9.38,0,0,0,1.05-1.47,8.56,8.56,0,0,0,.73-1.64,10.09,10.09,0,0,0,.48-1.71Z"/><path class="cls-1" d="M309.63,40.9A9,9,0,0,1,305,46.5a8.85,8.85,0,0,1-2.47.9,86.64,86.64,0,0,1-1.4-10,9.27,9.27,0,0,1,.48-3.59l-1-.9a10.75,10.75,0,0,0-.76,4.09,10.81,10.81,0,0,0-3.76,1.51,11.06,11.06,0,0,0-3,2.92,10.48,10.48,0,0,0-1.67,3.8l1.14.72a10.64,10.64,0,0,1,.87-2.68A10.52,10.52,0,0,1,295.06,41a9,9,0,0,1,4.87-2.7c.18,1.73.35,3.4.61,5.07s.58,3.33.9,4.93a9.86,9.86,0,0,1,.17,3.4l1.15.73a11.88,11.88,0,0,0,0-3.81,10.21,10.21,0,0,0,3.44-1.34,9.27,9.27,0,0,0,2.72-2.34,9.94,9.94,0,0,0,1.74-3.11Z"/><path class="cls-1" d="M319.3,31.58a8.85,8.85,0,0,1-3.21,3.71,9.63,9.63,0,0,1-4.84,1.58c-.09-1.68-.06-3.31,0-5l.08-2.56.19-2.54a9,9,0,0,1,1-3.49l-.86-1.05a10.55,10.55,0,0,0-1.38,3.94,9.6,9.6,0,0,0-3.95.88,10.21,10.21,0,0,0-3.42,2.4,10.36,10.36,0,0,0-2.27,3.48l1,.89a9.78,9.78,0,0,1,3.26-4.5,9.43,9.43,0,0,1,5.26-1.89,86,86,0,0,0-.09,10.14,10.68,10.68,0,0,1-.39,3.37l1,.9a12.22,12.22,0,0,0,.61-3.75A10.63,10.63,0,0,0,318,35.43a9.64,9.64,0,0,0,2.2-2.8Z"/><path class="cls-1" d="M330.35,24a9.32,9.32,0,0,1-8.81,3.91c.22-1.63.47-3.28.76-5s.69-3.29,1.09-5A8.33,8.33,0,0,1,325,14.66l-.68-1.17a11.78,11.78,0,0,0-1.21,1.71,10.53,10.53,0,0,0-.79,1.94,10.3,10.3,0,0,0-4.06.23,10.84,10.84,0,0,0-6.55,4.9l.85,1.05A9.49,9.49,0,0,1,322,18.39l-.56,2.49c-.17.84-.32,1.69-.46,2.52-.27,1.68-.54,3.28-.7,5a9.36,9.36,0,0,1-.92,3.26l.85,1.05a10.2,10.2,0,0,0,1.2-3.6,10.73,10.73,0,0,0,7-1.54,9.58,9.58,0,0,0,1.41-1.11,9.32,9.32,0,0,0,1.21-1.3Z"/><path class="cls-1" d="M342.47,18.17a9.29,9.29,0,0,1-4.22,2.5,8.55,8.55,0,0,1-2.49.3,9.07,9.07,0,0,1-2.6-.34,84.33,84.33,0,0,1,3.4-9.53,9.41,9.41,0,0,1,2.09-3l-.48-1.27a10.67,10.67,0,0,0-2.57,3.27,10.61,10.61,0,0,0-8,.81,10.43,10.43,0,0,0-3.25,2.58l.68,1.18a9.67,9.67,0,0,1,2-2,10.58,10.58,0,0,1,2.51-1.27,9.06,9.06,0,0,1,5.57-.14c-.64,1.61-1.26,3.19-1.81,4.78s-1,3.22-1.48,4.8A10.23,10.23,0,0,1,330.38,24l.68,1.18a12.31,12.31,0,0,0,1.75-3.38,10.13,10.13,0,0,0,3.67.4,9,9,0,0,0,3.49-.81,9.7,9.7,0,0,0,3-1.94Z"/><path class="cls-1" d="M355.35,14.42a8.89,8.89,0,0,1-4.56,1.79,9.63,9.63,0,0,1-5-.86c.7-1.53,1.48-3,2.29-4.44l1.26-2.23c.44-.73.89-1.44,1.36-2.17a9.25,9.25,0,0,1,2.53-2.61l-.28-1.33a10.78,10.78,0,0,0-3.05,2.85A9.63,9.63,0,0,0,346,4.36a10.07,10.07,0,0,0-4.15.54,10.29,10.29,0,0,0-3.62,2l.48,1.27a9.74,9.74,0,0,1,5-2.48,9.49,9.49,0,0,1,5.53.77,86.1,86.1,0,0,0-4.79,8.94,10.74,10.74,0,0,1-1.91,2.8l.49,1.26a11.73,11.73,0,0,0,2.27-3,10.63,10.63,0,0,0,7.14.75,9.12,9.12,0,0,0,3.24-1.46Z"/><path class="cls-1" d="M368.69,12.82a9,9,0,0,1-4.81,1,9.13,9.13,0,0,1-4.81-1.67,85.85,85.85,0,0,1,6.27-7.91,8.48,8.48,0,0,1,2.91-2.16L368.2.74a9.73,9.73,0,0,0-3.48,2.31,10.5,10.5,0,0,0-7.87-1.84,12,12,0,0,0-3.91,1.41L353.22,4a9.86,9.86,0,0,1,5.32-1.61A9.13,9.13,0,0,1,363.87,4c-1.13,1.27-2.21,2.64-3.24,4s-2,2.66-2.93,4.07a9.41,9.41,0,0,1-2.34,2.44l.27,1.32a10.25,10.25,0,0,0,2.74-2.61,12.16,12.16,0,0,0,3.35,1.57,9.1,9.1,0,0,0,1.77.3,9.94,9.94,0,0,0,1.81,0,11,11,0,0,0,3.44-.92Z"/><path class="cls-1" d="M382.11,13.35a9.33,9.33,0,0,1-9.39-2.17q1.72-1.75,3.58-3.5c1.24-1.14,2.53-2.22,3.86-3.33a8.2,8.2,0,0,1,3.22-1.66l.16-1.35a10.53,10.53,0,0,0-2,.65,11.24,11.24,0,0,0-1.8,1.07A10.5,10.5,0,0,0,376.37.8a12.11,12.11,0,0,0-4.1-.8,11.51,11.51,0,0,0-4.07.79l.05,1.35a9.57,9.57,0,0,1,5.51-.75,10.42,10.42,0,0,1,2.68.83,8.49,8.49,0,0,1,2.31,1.65l-1.94,1.65c-.64.58-1.26,1.17-1.88,1.75-1.23,1.18-2.41,2.3-3.54,3.54a9.66,9.66,0,0,1-2.7,2.06l.05,1.35a10.5,10.5,0,0,0,3.13-2.17,10.6,10.6,0,0,0,6.54,3,8.91,8.91,0,0,0,1.79,0,10.53,10.53,0,0,0,1.75-.31Z"/><path class="cls-1" d="M395.27,16a8.67,8.67,0,0,1-2.49,0,8.26,8.26,0,0,1-2.39-.57,9.91,9.91,0,0,1-4-3.1c1.32-1,2.69-2,4.09-2.89s2.86-1.8,4.36-2.68a8.86,8.86,0,0,1,3.44-1.11l.37-1.3a9.91,9.91,0,0,0-4,1.08,10.91,10.91,0,0,0-3-2.77,11.51,11.51,0,0,0-3.93-1.43,10.51,10.51,0,0,0-4.15.12l-.16,1.35a10.48,10.48,0,0,1,2.79-.37,9.73,9.73,0,0,1,2.77.5,8.94,8.94,0,0,1,4.54,3.24,86.41,86.41,0,0,0-8.38,5.66,9.77,9.77,0,0,1-3,1.63l-.17,1.34a11.3,11.3,0,0,0,3.43-1.65,10.57,10.57,0,0,0,2.69,2.54,10.06,10.06,0,0,0,3.28,1.45,10.91,10.91,0,0,0,3.55.23Z"/><path class="cls-1" d="M407.82,20.74a9.3,9.3,0,0,1-8.22-5l2.23-1.14,2.28-1c1.53-.67,3.13-1.38,4.72-2a9.61,9.61,0,0,1,3.59-.56L413,9.82a10.67,10.67,0,0,0-4.14.42A10.58,10.58,0,0,0,402.71,5a13.48,13.48,0,0,0-2-.5,12,12,0,0,0-2.07,0l-.38,1.3a9.49,9.49,0,0,1,9.44,4.95q-2.43,1-4.71,2c-1.53.71-3,1.5-4.49,2.26a10.92,10.92,0,0,1-3.21,1.1l-.37,1.31a10.1,10.1,0,0,0,1.84-.4,9.57,9.57,0,0,0,1.8-.67,11.15,11.15,0,0,0,2.25,2.93,9,9,0,0,0,3,1.94,9,9,0,0,0,3.46.8Z"/><path class="cls-1" d="M419.45,27.46A9,9,0,0,1,415,25.38a9.21,9.21,0,0,1-2.85-4.21,85.59,85.59,0,0,1,9.76-2.57,8.38,8.38,0,0,1,3.63,0l.77-1.12a9.91,9.91,0,0,0-4.16-.24,9.45,9.45,0,0,0-1.94-3.56A10.62,10.62,0,0,0,417,11.08a11.35,11.35,0,0,0-4-1.22l-.58,1.23A9.87,9.87,0,0,1,417.63,13a9.22,9.22,0,0,1,3.27,4.53c-1.66.33-3.36.8-5,1.23-.82.23-1.61.45-2.41.7l-2.38.8a10.16,10.16,0,0,1-3.34.55L407.22,22a10.86,10.86,0,0,0,3.76-.45,12.49,12.49,0,0,0,1.74,3.27,11.33,11.33,0,0,0,2.66,2.41,10.92,10.92,0,0,0,3.3,1.34Z"/><path class="cls-1" d="M429.85,36a8.93,8.93,0,0,1-2.22-1.13,8.19,8.19,0,0,1-1.85-1.62,9.8,9.8,0,0,1-2.13-4.63c1.62-.24,3.29-.48,5-.65s3.36-.26,5.09-.34a8.79,8.79,0,0,1,3.57.62l.94-1a9.71,9.71,0,0,0-4.07-.91,10.91,10.91,0,0,0-1.33-3.84,12,12,0,0,0-2.81-3.1,11.23,11.23,0,0,0-3.72-1.83l-.77,1.12a9.48,9.48,0,0,1,4.85,2.71A9.91,9.91,0,0,1,432,23.65a9.57,9.57,0,0,1,.85,2.72,83.49,83.49,0,0,0-10.05,1.11,9.72,9.72,0,0,1-3.4,0l-.77,1.12a10.93,10.93,0,0,0,3.8.14,10.59,10.59,0,0,0,3.42,6.32,10.92,10.92,0,0,0,3,1.85Z"/><path class="cls-1" d="M438.78,46a9.28,9.28,0,0,1-5-8.26l2.5,0,2.5.13c1.67.12,3.41.23,5.09.47a9.6,9.6,0,0,1,3.44,1.16l1.08-.81a10.52,10.52,0,0,0-3.87-1.54,10.54,10.54,0,0,0-3-7.5,12.89,12.89,0,0,0-1.57-1.4,12.35,12.35,0,0,0-1.81-1l-.94,1A9.52,9.52,0,0,1,443.3,37c-1.74-.17-3.44-.3-5.11-.4s-3.38-.09-5-.09a10.84,10.84,0,0,1-3.36-.52l-.93,1a10.49,10.49,0,0,0,1.81.51,9.88,9.88,0,0,0,1.91.24,11.17,11.17,0,0,0,.63,3.64A9.4,9.4,0,0,0,435,44.49a9.11,9.11,0,0,0,2.71,2.31Z"/><path class="cls-1" d="M446,57.33a9,9,0,0,1-3-3.9,9.19,9.19,0,0,1-.57-5.06,85.82,85.82,0,0,1,9.84,2.25,8.44,8.44,0,0,1,3.2,1.7l1.2-.63a9.75,9.75,0,0,0-3.58-2.14,10.41,10.41,0,0,0-1.74-7.89,11.37,11.37,0,0,0-2.95-2.92l-1.08.81a9.91,9.91,0,0,1,3.75,4.11,9.12,9.12,0,0,1,.8,5.52c-1.63-.47-3.33-.85-5-1.21l-2.46-.5c-.82-.14-1.66-.27-2.48-.39A9.71,9.71,0,0,1,438.74,46l-1.08.81a10.63,10.63,0,0,0,3.54,1.35,12.06,12.06,0,0,0,0,3.7,11.48,11.48,0,0,0,1.23,3.37A10.75,10.75,0,0,0,444.77,58Z"/><path class="cls-1" d="M451.24,69.67a8.34,8.34,0,0,1-1.44-2,8.08,8.08,0,0,1-.89-2.29,9.83,9.83,0,0,1,.26-5.08c1.54.53,3.15,1.09,4.7,1.73s3.11,1.33,4.68,2.06a9,9,0,0,1,2.87,2.2l1.28-.43a9.77,9.77,0,0,0-3.17-2.69,10.92,10.92,0,0,0,.59-4,11.84,11.84,0,0,0-1.05-4,11,11,0,0,0-2.45-3.34l-1.2.63a9.44,9.44,0,0,1,3,4.66,9.29,9.29,0,0,1,.41,2.77,9.53,9.53,0,0,1-.5,2.8A86.41,86.41,0,0,0,449,58.9a9.43,9.43,0,0,1-3-1.55l-1.2.63A10.87,10.87,0,0,0,448,59.87a10.49,10.49,0,0,0-.58,3.66,10.14,10.14,0,0,0,.68,3.52,11.07,11.07,0,0,0,1.82,3Z"/><path class="cls-1" d="M454.46,82.7a9.32,9.32,0,0,1-.54-9.61l2.21,1.19c.72.41,1.43.84,2.15,1.28,1.41.88,2.91,1.79,4.29,2.78A9.48,9.48,0,0,1,465.06,81l1.33-.22a10.71,10.71,0,0,0-2.69-3.17,10.53,10.53,0,0,0,.83-8,12.3,12.3,0,0,0-.75-2,10.94,10.94,0,0,0-1.13-1.73l-1.28.43a9.5,9.5,0,0,1,1.28,10.57c-1.45-.95-2.89-1.87-4.32-2.73s-3-1.66-4.41-2.42a11,11,0,0,1-2.73-2l-1.29.43a10.5,10.5,0,0,0,1.37,1.29,9.88,9.88,0,0,0,1.58,1.1A11.1,11.1,0,0,0,451.71,76a9,9,0,0,0,.11,3.59,9.28,9.28,0,0,0,1.3,3.31Z"/><path class="cls-1" d="M455.56,96.09a8.71,8.71,0,0,1-.85-4.84,9.53,9.53,0,0,1,1.85-4.75c1.36,1,2.58,2,3.89,3.15l1.93,1.68c.62.57,1.23,1.15,1.85,1.75a9.62,9.62,0,0,1,2.06,3h1.36a10.94,10.94,0,0,0-2.19-3.56,9.59,9.59,0,0,0,1.82-3.62,10.24,10.24,0,0,0,.31-4.17,10.86,10.86,0,0,0-1.24-4L465,81a10,10,0,0,1,1.42,5.38,9.65,9.65,0,0,1-1.87,5.26,85.14,85.14,0,0,0-7.8-6.49,10.38,10.38,0,0,1-2.35-2.43l-1.34.21a11.44,11.44,0,0,0,2.51,2.85,12.5,12.5,0,0,0-1.7,3.28,10.41,10.41,0,0,0-.46,3.56,8.91,8.91,0,0,0,.78,3.48Z"/><path class="cls-1" d="M406.89,119.75,402.28,121l-4.6,1.24a1.68,1.68,0,0,0-.92,2.63,47.75,47.75,0,0,1-21,7.19l0-44.67h11.61a6,6,0,1,0,0-7.2h-11.6l0-18.58a10.57,10.57,0,1,0-7.2,0l0,18.62H356.9a5.91,5.91,0,0,0-4.75-2.38,6,6,0,1,0,0,12,5.92,5.92,0,0,0,4.75-2.39h11.61l0,44.68a48,48,0,0,1-21-7.16,1.68,1.68,0,0,0-.91-2.62L342,121.05l-4.61-1.24a1.7,1.7,0,0,0-2.07,2.08l1.24,4.61,1.24,4.6a1.69,1.69,0,0,0,2.83.76l.14-.14a57.5,57.5,0,0,0,27.78,9.67v5.17l1.8,3.12.33.56a1.69,1.69,0,0,0,2.94,0l.33-.57,1.8-3.11v-5.18a57.34,57.34,0,0,0,27.77-9.72l.14.14a1.69,1.69,0,0,0,2.83-.76l1.23-4.61,1.23-4.61A1.69,1.69,0,0,0,406.89,119.75Zm-40.71-69a6,6,0,1,1,6.92,6.91A6,6,0,0,1,366.18,50.73Z"/><path class="cls-1" d="M273.29,143.18a2.83,2.83,0,0,0-4,.31c-.07.09-7,8-15.59,8.06h-.17c-4.87-.06-9.5-2.74-13.76-8-5.43-6.66-11.52-10-18.09-10h0c-10.85,0-18.77,9.33-19.35,10h0c-.07.08-7,8-15.59,8.06h-.17c-4.87-.06-9.5-2.74-13.76-8-5.43-6.66-11.51-10-18.09-10h0c-10.84,0-18.76,9.33-19.34,10h0c-.07.08-7,8-15.59,8.06h-.17c-4.87-.06-9.5-2.74-13.76-8-5.42-6.66-11.51-10.05-18.09-10.05h0c-10.85,0-18.77,9.33-19.35,10h0c-.07.08-7,8.05-15.59,8.06h-.17c-4.87-.06-9.5-2.74-13.77-8-5.42-6.66-11.51-10.05-18.09-10.05h0c-11,0-19,9.67-19.39,10.08a2.82,2.82,0,1,0,4.37,3.57c.07-.08,6.64-8,15-8h0c4.8,0,9.42,2.69,13.72,8,5.37,6.6,11.45,10,18.07,10.06h.24c11.2,0,19.53-9.62,19.88-10,0,0,0,0,0,0l0,0c.06-.08,6.63-8,15-8h0c4.8,0,9.41,2.69,13.71,8,5.37,6.6,11.45,10,18.08,10.06h.24c11.2,0,19.53-9.62,19.88-10l0,0,0,0c.06-.08,6.63-8,15-8h0c4.8,0,9.42,2.69,13.72,8,5.37,6.59,11.45,10,18.08,10.05h.24c11.2,0,19.52-9.62,19.88-10v0s0,0,0,0,6.64-8,15-8h0c4.8,0,9.42,2.69,13.72,8,5.37,6.59,11.45,10,18.07,10.05h.24c11.2,0,19.53-9.62,19.88-10A2.83,2.83,0,0,0,273.29,143.18Z"/><path class="cls-1" d="M157.75,43.08a19.78,19.78,0,1,0,0,23.67v7.77h3.95l0-39.55h-4ZM142,70.75a15.82,15.82,0,1,1,0-31.64h0a15.82,15.82,0,0,1,15.84,15.8h0A15.81,15.81,0,0,1,142,70.75Z"/><path class="cls-1" d="M19.78,35.26H0v3.95L0,70.88v4H19.81a19.78,19.78,0,1,0,0-39.56Zm0,35.6L4,70.88,4,39.23l15.82,0a15.83,15.83,0,0,1,0,31.65Z"/><path class="cls-1" d="M244.48,54.37a19.75,19.75,0,0,0-37.56-7.93,19.73,19.73,0,0,0-33.63-3.22V35.27h-3.95l0,39.74h4l0-20A15.83,15.83,0,0,1,205,55h0l0,20h3.95V55a15.82,15.82,0,1,1,31.64,0h0l0,19.95h4l0-20.57Z"/><path class="cls-1" d="M94.59,35.19a19.78,19.78,0,1,0,13.78,34l-3-2.64a15.8,15.8,0,0,1-26.1-7.59l35.09,0V55A19.78,19.78,0,0,0,94.59,35.19ZM78.78,55h0a15.83,15.83,0,0,1,31.65,0Z"/><path class="cls-1" d="M51.22,43.18v-8h-4l0,39.56h4V55A15.82,15.82,0,0,1,67,39.17v-4A19.69,19.69,0,0,0,51.22,43.18Z"/><path class="cls-1" d="M100,83.54a19.78,19.78,0,1,0,19.8,19.76A19.78,19.78,0,0,0,100,83.54Zm0,33a13.19,13.19,0,1,1,13.18-13.2A13.19,13.19,0,0,1,100.07,116.5Z"/><path class="cls-1" d="M66,103.35a13.19,13.19,0,0,1-26.37,0l0-20H33l0,20a13.19,13.19,0,0,1-26.38,0h0v-20H0l0,20.21h0A19.77,19.77,0,0,0,36.33,114.3a19.78,19.78,0,0,0,36.26-11l0-20.88H66Z"/><path class="cls-1" d="M134.11,83.51h-6.59l0,39.56h6.59V103.29h0a13.17,13.17,0,0,1,13.17-13.2v-6.6a19.74,19.74,0,0,0-13.19,5.08Z"/><path class="cls-1" d="M161.6,102.87h0l0-19.39H155l0,19.38a19.77,19.77,0,0,0,19.79,19.76V116A13.19,13.19,0,0,1,161.6,102.87Z"/><path class="cls-1" d="M202.24,83.45H182.46v6.6l0,26.37V123h19.78a19.78,19.78,0,0,0,0-39.56Zm0,33H189.09l0-26.37h13.19a13.19,13.19,0,1,1,0,26.37Z"/></g></g></svg>