<svg xmlns="http://www.w3.org/2000/svg" viewBox="0 0 470.77 135.62"><defs><style>.cls-1{fill:#494ca2;}</style></defs><title>Fichier 149</title><g id="Calque_2" data-name="Calque 2"><g id="Calque_3" data-name="Calque 3"><polygon class="cls-1" points="410.19 15.53 369.21 117.14 387.47 117.14 419.99 36.52 452.51 117.14 470.77 117.14 429.78 15.53 410.19 15.53"/><polygon class="cls-1" points="343.9 117.14 384.89 15.53 366.63 15.53 334.11 96.15 301.59 15.53 283.33 15.53 324.31 117.14 343.9 117.14"/><path class="cls-1" d="M234.25,100.2V74.8h33.87v-.07h14.05l-6.81-16.86H234.25V32.46h30.87l-6.84-16.93h-41V117.14h82l-6.83-16.94Zm84.67,16.94V117l-.06.15Z"/><path class="cls-1" d="M64.82,49.8a25.09,25.09,0,0,1,43.46,0l49.55,85.82a86.55,86.55,0,1,0-142.56,0Z"/><circle class="cls-1" cx="86.55" cy="97.48" r="14.84"/></g></g></svg>