<svg xmlns="http://www.w3.org/2000/svg" viewBox="0 0 234 67.41"><defs><style>.cls-1{fill:#494ca2;}.cls-2{fill:none;stroke:#ff1f20;stroke-miterlimit:10;}</style></defs><title>logoevasiteweb</title><g id="Calque_2" data-name="Calque 2"><g id="Calque_3" data-name="Calque 3"><polygon class="cls-1" points="203.89 7.72 183.52 58.22 192.59 58.22 208.76 18.15 224.92 58.22 234 58.22 213.63 7.72 203.89 7.72"/><polygon class="cls-1" points="170.94 58.22 191.31 7.72 182.24 7.72 166.07 47.79 149.91 7.72 140.83 7.72 161.2 58.22 170.94 58.22"/><path class="cls-1" d="M116.44,49.81V37.18h16.83v0h7l-3.38-8.38H116.44V16.14h15.34l-3.4-8.42H108v50.5h40.74l-3.4-8.42Zm42.09,8.42v-.07l0,.07Z"/><path class="cls-1" d="M32.22,24.75a12.47,12.47,0,0,1,21.6,0L78.45,67.41a43,43,0,1,0-70.86,0Z"/><circle class="cls-1" cx="43.02" cy="48.45" r="7.37"/><path class="cls-2" d="M149.2,38.15"/></g></g></svg>