<svg xmlns="http://www.w3.org/2000/svg" viewBox="0 0 91.54 59"><defs><style>.cls-1{fill:#494ca2;}</style></defs><title>logovisiosite</title><g id="Calque_2" data-name="Calque 2"><g id="Calque_1-2" data-name="Calque 1"><path class="cls-1" d="M9.47.23a4.83,4.83,0,0,1,3.05,6.53A39.78,39.78,0,0,0,9.31,22.08c0,11.51,6.09,18.24,14.88,18.24,8.15,0,12.81-4.66,17.33-16.43,5-14.23,12.42-23,24.71-23,13.59,0,23.68,11.26,23.68,28.2a44.85,44.85,0,0,1-2.34,15,4.81,4.81,0,0,1-6.09,2.9h0a4.81,4.81,0,0,1-3-6.18,35.2,35.2,0,0,0,2.12-12.08c0-11.9-7.11-16.43-13.06-16.43-8.15,0-12.16,5.3-16.82,17.33C45,44.33,37.91,51.83,25.1,51.83,11.64,51.83,0,41.87,0,21.3A50.44,50.44,0,0,1,3.54,2.95,4.83,4.83,0,0,1,9.39.21Z"/><circle class="cls-1" cx="67.55" cy="26.74" r="5.23"/><circle class="cls-1" cx="22.89" cy="26.74" r="5.23"/><rect class="cls-1" x="59.84" y="50.59" width="1.4" height="8.41"/><rect class="cls-1" x="76.73" y="50.59" width="1.4" height="8.41"/><polygon class="cls-1" points="52.14 56.96 49.5 50.59 47.95 50.59 51.44 59 52.85 59 56.34 50.59 54.79 50.59 52.14 56.96"/><path class="cls-1" d="M64.73,53h0a2.45,2.45,0,0,0,2.45,2.45h3.5V54.1h-3.5A1.05,1.05,0,0,1,66.13,53h0A1.05,1.05,0,0,1,67.18,52h6v-1.4h-6A2.45,2.45,0,0,0,64.73,53Z"/><path class="cls-1" d="M70.68,54.1h0v1.4h0a1.05,1.05,0,0,1,1.05,1.05h0a1.05,1.05,0,0,1-1.05,1.05h-6V59h6a2.45,2.45,0,0,0,2.45-2.45h0A2.45,2.45,0,0,0,70.68,54.1Z"/><path class="cls-1" d="M87.35,50.59a4.19,4.19,0,1,0,4.19,4.19A4.19,4.19,0,0,0,87.35,50.59Zm0,6.64a2.45,2.45,0,1,1,2.45-2.45A2.45,2.45,0,0,1,87.35,57.24Z"/></g></g></svg>