<svg xmlns="http://www.w3.org/2000/svg" viewBox="0 0 235.41 91.27"><defs><style>.cls-1{fill:#494ca2;}</style></defs><title>logolotussite_1</title><g id="Calque_2" data-name="Calque 2"><g id="Calque_1-2" data-name="Calque 1"><path class="cls-1" d="M189.77,25.49a6.76,6.76,0,1,1,6.76-6.76A6.77,6.77,0,0,1,189.77,25.49Zm0-11.94a5.17,5.17,0,1,0,5.17,5.17A5.18,5.18,0,0,0,189.77,13.55Z"/><path class="cls-1" d="M189.77,79.72l-.6-.68a45.83,45.83,0,0,1-8.32-15.43c-2.55-8.36-3.16-20.74,8.36-32.26l.56-.56.56.56c11.52,11.52,10.9,23.9,8.36,32.26A45.83,45.83,0,0,1,190.37,79Zm0-46.68c-8.35,8.68-10.84,18.8-7.4,30.1a45.52,45.52,0,0,0,7.4,14.11,45.59,45.59,0,0,0,7.42-14.16C200.61,51.82,198.11,41.71,189.77,33Z"/><path class="cls-1" d="M192.13,74l.9-1.52c3-5.17,6.46-13.19,5.44-22l0-.35.24-.27c6-6.73,14.06-10.14,24.07-10.14h.79v.79c0,24.73-20.74,31.43-29.66,33.17Zm8-23.36c.86,8.28-1.95,15.8-4.81,21.1,9.09-2.13,26.24-9,26.65-30.44C212.89,41.46,205.55,44.6,200.09,50.62ZM187.42,74l-1.73-.34C176.77,71.91,156,65.21,156,40.48v-.79h.79c10,0,18.11,3.41,24.07,10.14l.24.27,0,.35c-1,8.83,2.39,16.84,5.44,22Zm-29.8-32.7c.42,21.45,17.56,28.31,26.65,30.44-2.86-5.29-5.67-12.82-4.81-21.1C174,44.6,166.66,41.46,157.62,41.28Z"/><path class="cls-1" d="M189.77,91.27a45.64,45.64,0,1,1,45.64-45.64A45.69,45.69,0,0,1,189.77,91.27Zm0-89.68a44,44,0,1,0,44,44A44.1,44.1,0,0,0,189.77,1.59Z"/><polygon class="cls-1" points="1.99 16.05 0 16.05 0 73.23 0 75.22 1.99 75.22 20.57 75.22 20.57 73.23 1.99 73.23 1.99 16.05"/><polygon class="cls-1" points="1.99 16.05 0 16.05 0 73.23 0 75.22 1.99 75.22 20.57 75.22 20.57 73.23 1.99 73.23 1.99 16.05 1.99 16.05"/><polygon class="cls-1" points="104.18 73.23 87.6 73.23 87.6 16.05 85.6 16.05 85.6 73.23 85.6 75.22 87.6 75.22 104.18 75.22 106.17 75.22 106.17 73.23 106.17 16.05 104.18 16.05 104.18 73.23"/><polygon class="cls-1" points="106.17 16.05 104.18 16.05 104.18 73.23 87.6 73.23 87.6 16.05 85.6 16.05 85.6 73.23 85.6 75.22 87.6 75.22 104.18 75.22 106.17 75.22 106.17 73.23 106.17 16.05 106.17 16.05"/><path class="cls-1" d="M30.66,16h-2V75.22H49.24V16H30.66ZM47.24,73.23H30.66V18H47.24Z"/><path class="cls-1" d="M49.24,16H28.67V75.22H49.24V16ZM30.66,73.23V18H47.24V73.23Z"/><polygon class="cls-1" points="133.19 16.05 123.91 16.05 121.91 16.05 121.91 18.04 121.91 73.23 112.62 73.23 112.62 75.22 121.91 75.22 123.91 75.22 123.91 73.23 123.91 18.04 133.19 18.04 133.19 16.05"/><polygon class="cls-1" points="133.19 16.05 123.91 16.05 121.91 16.05 121.91 18.04 121.91 73.23 112.62 73.23 112.62 75.22 121.91 75.22 123.91 75.22 123.91 73.23 123.91 18.04 133.19 18.04 133.19 16.05 133.19 16.05"/><polygon class="cls-1" points="67.43 16.05 58.14 16.05 58.14 18.04 67.43 18.04 67.43 75.22 69.42 75.22 69.42 18.04 78.71 18.04 78.71 16.05 69.42 16.05 67.43 16.05"/><polygon class="cls-1" points="78.71 16.05 69.42 16.05 67.43 16.05 58.14 16.05 58.14 18.04 67.43 18.04 67.43 75.22 69.42 75.22 69.42 18.04 78.71 18.04 78.71 16.05 78.71 16.05"/></g></g></svg>