<svg xmlns="http://www.w3.org/2000/svg" viewBox="0 0 281.01 127.94"><defs><style>.cls-1{fill:#494ca2;}</style></defs><title>logolotussiteweb</title><g id="Calque_2" data-name="Calque 2"><g id="Calque_1-2" data-name="Calque 1"><path class="cls-1" d="M64,35.73a9.48,9.48,0,1,1,9.48-9.48A9.49,9.49,0,0,1,64,35.73ZM64,19a7.25,7.25,0,1,0,7.25,7.25A7.26,7.26,0,0,0,64,19Z"/><path class="cls-1" d="M64,111.75l-.84-1A64.25,64.25,0,0,1,51.46,89.16C47.9,77.45,47,60.1,63.18,43.95l.79-.79.79.79C80.91,60.1,80,77.45,76.48,89.16A64.25,64.25,0,0,1,64.81,110.8Zm0-65.43C52.26,58.49,48.77,72.67,53.6,88.51A63.81,63.81,0,0,0,64,108.3a63.91,63.91,0,0,0,10.4-19.85C79.16,72.63,75.66,58.47,64,46.33Z"/><path class="cls-1" d="M67.27,103.7l1.26-2.13c4.27-7.25,9.06-18.48,7.63-30.86l-.06-.49.33-.37c8.36-9.44,19.71-14.22,33.74-14.22h1.11v1.11c0,34.66-29.08,44.06-41.58,46.49ZM78.42,71c1.2,11.6-2.73,22.15-6.75,29.57,12.75-3,36.78-12.6,37.36-42.66C96.37,58.11,86.08,62.51,78.42,71ZM60.67,103.7l-2.43-.47c-12.5-2.43-41.58-11.83-41.58-46.49V55.63h1.11c14,0,25.38,4.78,33.74,14.22l.33.37-.06.49c-1.43,12.37,3.36,23.61,7.63,30.86ZM18.9,57.87c.59,30.07,24.61,39.68,37.36,42.66-4-7.42-7.95-18-6.75-29.57C41.86,62.51,31.57,58.11,18.9,57.87Z"/><path class="cls-1" d="M64,127.94a64,64,0,1,1,64-64A64,64,0,0,1,64,127.94ZM64,2.23A61.74,61.74,0,1,0,125.71,64,61.81,61.81,0,0,0,64,2.23Z"/><polygon class="cls-1" points="149.81 34.38 147.82 34.38 147.82 91.56 147.82 93.56 149.81 93.56 168.39 93.56 168.39 91.56 149.81 91.56 149.81 34.38"/><polygon class="cls-1" points="252 91.56 235.42 91.56 235.42 34.38 233.42 34.38 233.42 91.56 233.42 93.56 235.42 93.56 252 93.56 253.99 93.56 253.99 91.56 253.99 34.38 252 34.38 252 91.56"/><path class="cls-1" d="M178.48,34.38h-2V93.56h20.57V34.38H178.48Zm16.58,57.18H178.48V36.38h16.58Z"/><polygon class="cls-1" points="281.01 34.38 271.73 34.38 269.73 34.38 269.73 36.38 269.73 91.56 260.44 91.56 260.44 93.56 269.73 93.56 271.73 93.56 271.73 91.56 271.73 36.38 281.01 36.38 281.01 34.38"/><polygon class="cls-1" points="215.25 34.38 205.96 34.38 205.96 36.38 215.25 36.38 215.25 93.56 217.24 93.56 217.24 36.38 226.53 36.38 226.53 34.38 217.24 34.38 215.25 34.38"/></g></g></svg>