<svg xmlns="http://www.w3.org/2000/svg" viewBox="0 0 377.04 150.43"><defs><style>.cls-1{fill:#494ca2;}</style></defs><title>logobediff</title><g id="Calque_2" data-name="Calque 2"><g id="Calque_1-2" data-name="Calque 1"><path class="cls-1" d="M73.3,86.4H41.61v26.09H73.3a13,13,0,0,0,0-26.09Zm0-48.46H41.61V64H73.3a13,13,0,0,0,0-26.09ZM0,0V150.43H185.9V0ZM75.71,134.86H19.25V112.49h0V86.4h0V64h0V37.94h0V15.58H75.71v.09a35.39,35.39,0,0,1,23.4,59.55,35.39,35.39,0,0,1-23.4,59.55Zm90.94,0H91.56a40.16,40.16,0,0,0,19.39-22.36h55.71Zm0-48.46H111a39.68,39.68,0,0,0-6-11.18A39.68,39.68,0,0,0,111,64h55.68Zm0-48.46H110.94A40.16,40.16,0,0,0,91.56,15.58h75.09Z"/><rect class="cls-1" x="245.56" y="128.56" width="3.25" height="21.88"/><polygon class="cls-1" points="367.19 128.56 351.43 128.56 351.43 131.81 357.66 131.81 357.66 150.43 360.91 150.43 360.91 131.81 367.19 131.81 367.19 128.56"/><polygon class="cls-1" points="347.5 144.55 338.66 128.56 334.94 128.56 334.94 128.56 334.94 150.43 338.2 150.43 338.2 134.44 347.04 150.43 350.75 150.43 350.75 150.43 350.75 150.43 350.75 128.56 347.5 128.56 347.5 144.55"/><polygon class="cls-1" points="252.75 128.56 252.75 128.56 252.75 131.81 252.75 131.81 252.75 137.53 252.75 137.53 252.75 140.78 252.75 140.78 252.75 150.43 256 150.43 256 140.78 260.65 140.78 260.65 137.53 256 137.53 256 131.81 268.56 131.81 268.56 128.56 256 128.56 252.75 128.56"/><polygon class="cls-1" points="269.19 128.56 269.19 128.56 269.19 131.81 269.19 131.81 269.19 137.53 269.19 137.53 269.19 140.78 269.19 140.78 269.19 150.43 272.44 150.43 272.44 140.78 277.09 140.78 277.09 137.53 272.44 137.53 272.44 131.81 285 131.81 285 128.56 272.44 128.56 269.19 128.56"/><polygon class="cls-1" points="285.63 128.56 285.63 128.56 285.63 131.81 285.63 131.81 285.63 137.53 285.63 137.53 285.63 140.78 285.63 140.78 285.63 147.18 285.63 147.18 285.63 150.43 285.63 150.43 288.88 150.43 301.44 150.43 301.44 147.18 288.88 147.18 288.88 140.78 293.53 140.78 293.53 137.53 288.88 137.53 288.88 131.81 301.44 131.81 301.44 128.56 288.88 128.56 285.63 128.56"/><polygon class="cls-1" points="318.5 128.56 318.5 128.56 318.5 131.81 318.5 131.81 318.5 137.53 318.5 137.53 318.5 140.78 318.5 140.78 318.5 147.18 318.5 147.18 318.5 150.43 318.5 150.43 321.76 150.43 334.31 150.43 334.31 147.18 321.76 147.18 321.76 140.78 326.41 140.78 326.41 137.53 321.76 137.53 321.76 131.81 334.31 131.81 334.31 128.56 321.76 128.56 318.5 128.56"/><path class="cls-1" d="M234.06,128.56h-9.53v21.88h9.53a6.28,6.28,0,0,0,6.28-6.23h0v-9.36h0A6.28,6.28,0,0,0,234.06,128.56Zm0,18.62h-6.27V131.81h6.27a3,3,0,0,1,3,3h0v9.31h0A3,3,0,0,1,234.06,147.18Z"/><path class="cls-1" d="M315.23,139.5A6.28,6.28,0,0,0,311,128.56h-8.94v3.25h0v6.06h0v3.25h0v9.31h3.25v-9.31H311a3,3,0,0,1,3,3h0v6.28h3.25v-6.28h0A6.27,6.27,0,0,0,315.23,139.5Zm-9.91-1.63v-6.06H311a3,3,0,0,1,0,6.06Z"/><path class="cls-1" d="M291.1,123.53h7.37V0H291.1Zm10,0h1.77V0h-1.77Zm-16.17,0h3.28V0h-3.28Zm19.69,0h1.77V0h-1.77Zm63.87,0h1.77V0H368.5Zm-90.12,0h3.28V0h-3.28Zm-13.13,0h3.28V0h-3.28Zm6.56,0h3.28V0h-3.28ZM371.65,0V123.53H377V0Zm-64,123.53h1.77V0H307.6Zm39.7,0h3.28V0H347.3Zm6.56,0h3.28V0h-3.28Zm-13.13,0H344V0h-3.28Zm-29.54,0h6.56V0H311.2Zm49.23,0H367V0h-6.56Zm-26.26,0h3.28V0h-3.28Zm-13.13,0h3.28V0H321Zm6.56,0h3.28V0h-3.28Zm-82,0h6.56V0h-6.56Zm9.85,0H262V0h-6.56Zm-32.82,0h3.28V0h-3.28Zm6.56,0h3.28V0h-3.28Zm-39.38,26.9h6.56V0h-6.56Zm45.95-26.9h6.56V0h-6.56Zm-36.1,26.9h6.56V0h-6.56Zm16.41,0h3.28V0H216Zm-6.56,0h3.28V0h-3.28Z"/></g></g></svg>