<svg xmlns="http://www.w3.org/2000/svg" viewBox="0 0 402.95 166.94"><defs><style>.cls-1{fill:#494ca2;}</style></defs><title>Fichier 152</title><g id="Calque_2" data-name="Calque 2"><g id="Calque_1-2" data-name="Calque 1"><path class="cls-1" d="M83.47,46.61A12.37,12.37,0,1,1,95.84,34.24,12.39,12.39,0,0,1,83.47,46.61Zm0-21.83a9.47,9.47,0,1,0,9.46,9.46A9.47,9.47,0,0,0,83.47,24.78Z"/><path class="cls-1" d="M83.47,145.82l-1.1-1.25a83.88,83.88,0,0,1-15.22-28.23c-4.65-15.28-5.78-37.93,15.29-59l1-1,1,1c21.07,21.07,19.94,43.72,15.29,59a83.61,83.61,0,0,1-15.23,28.23Zm0-85.37c-15.28,15.86-19.83,34.38-13.54,55a83.3,83.3,0,0,0,13.54,25.82A83.45,83.45,0,0,0,97,115.4C103.29,94.77,98.72,76.29,83.47,60.45Z"/><path class="cls-1" d="M87.78,135.31l1.64-2.78c5.57-9.45,11.82-24.12,10-40.26l-.08-.65.43-.48c10.9-12.31,25.72-18.56,44-18.56h1.46V74c0,45.23-37.94,57.49-54.25,60.66Zm14.55-42.72c1.56,15.14-3.57,28.9-8.8,38.58,16.63-3.89,48-16.43,48.75-55.67C125.75,75.82,112.32,81.57,102.33,92.59ZM79.16,135.31,76,134.7C59.68,131.53,21.74,119.27,21.74,74V72.58h1.45c18.31,0,33.12,6.25,44,18.56l.43.48-.07.65c-1.87,16.14,4.38,30.81,10,40.26ZM24.66,75.5c.77,39.24,32.12,51.78,48.75,55.67-5.24-9.68-10.37-23.44-8.8-38.58C54.62,81.57,41.19,75.82,24.66,75.5Z"/><path class="cls-1" d="M83.47,166.94a83.47,83.47,0,1,1,83.47-83.47A83.57,83.57,0,0,1,83.47,166.94Zm0-164A80.56,80.56,0,1,0,164,83.47,80.65,80.65,0,0,0,83.47,2.91Z"/><polygon class="cls-1" points="201.9 38.13 198.84 38.13 198.84 125.75 198.84 128.81 201.9 128.81 230.37 128.81 230.37 125.75 201.9 125.75 201.9 38.13"/><polygon class="cls-1" points="358.49 125.75 333.08 125.75 333.08 38.13 330.03 38.13 330.03 125.75 330.03 128.81 333.08 128.81 358.49 128.81 361.55 128.81 361.55 125.75 361.55 38.13 358.49 38.13 358.49 125.75"/><path class="cls-1" d="M245.83,38.13h-3.06v90.68H274.3V38.13H245.83Zm25.41,87.63H245.83V41.18h25.41Z"/><polygon class="cls-1" points="402.95 38.13 388.72 38.13 385.67 38.13 385.67 41.18 385.67 125.75 371.43 125.75 371.43 128.81 385.67 128.81 388.72 128.81 388.72 125.75 388.72 41.18 402.95 41.18 402.95 38.13"/><polygon class="cls-1" points="302.17 38.13 287.94 38.13 287.94 41.18 302.17 41.18 302.17 128.81 305.23 128.81 305.23 41.18 319.46 41.18 319.46 38.13 305.23 38.13 302.17 38.13"/></g></g></svg>