<svg xmlns="http://www.w3.org/2000/svg" viewBox="0 0 407.61 120.21"><defs><style>.cls-1{fill:#494ca2;}</style></defs><title>Fichier 153</title><g id="Calque_2" data-name="Calque 2"><g id="Calque_1-2" data-name="Calque 1"><polygon class="cls-1" points="113.42 26.99 109.83 20.49 80.03 75.57 59.83 39.05 59.81 39.08 56.22 32.58 56.23 32.55 49.07 19.61 49.05 19.63 38.19 0 0 70.6 29.69 70.6 26.23 64.34 10.5 64.34 38.25 13.03 69.21 68.98 69.23 68.97 80.09 88.6 113.42 26.99"/><polygon class="cls-1" points="45.55 58.6 49.14 52.11 78.94 107.18 99.14 70.66 99.16 70.69 102.75 64.19 102.74 64.17 109.89 51.23 109.92 51.24 120.78 31.61 158.97 102.21 129.28 102.21 132.74 95.96 148.47 95.96 120.71 44.65 89.76 100.6 89.73 100.59 78.88 120.21 45.55 58.6"/><polygon class="cls-1" points="225.97 64.51 219.87 64.51 207.63 64.51 201.51 64.51 189.26 64.51 183.16 64.51 183.14 64.51 183.14 107.32 189.26 107.32 189.26 70.63 201.51 70.63 201.51 107.32 207.63 107.32 207.63 70.63 219.87 70.63 219.87 107.32 225.99 107.32 225.99 64.51 225.97 64.51"/><polygon class="cls-1" points="407.61 64.51 389.26 64.51 383.14 64.51 364.79 64.51 364.79 70.63 383.14 70.63 383.14 107.32 389.26 107.32 389.26 70.63 407.61 70.63 407.61 64.51"/><rect class="cls-1" x="225.57" y="16.06" width="5.61" height="39.25"/><rect class="cls-1" x="276.72" y="16.06" width="5.61" height="39.25"/><path class="cls-1" d="M245.48,21.89h28.09V16.28H245.45a11.16,11.16,0,0,0,0,22.32h17a5.55,5.55,0,1,1,0,11.1H234.33v5.61h28.1a11.16,11.16,0,0,0,0-22.32H245.48a5.55,5.55,0,1,1,0-11.1Z"/><path class="cls-1" d="M211.23,38.38a11.16,11.16,0,0,0,0-22.32H183.14V55.31h5.61V38.38h12.58l13.79,16.93h7.24l-13.8-16.93ZM188.75,21.67h22.48a5.55,5.55,0,1,1,0,11.1H188.75Z"/><polygon class="cls-1" points="324.73 53.09 324.73 16.06 319.12 16.06 319.12 46.57 292.88 16.06 291.09 16.06 285.48 16.06 285.48 55.31 291.09 55.31 291.09 22.58 319.12 55.17 319.12 55.31 319.24 55.31 324.73 55.31 324.73 55.31 324.73 53.09 324.73 53.09"/><path class="cls-1" d="M347.5,32.77v5.61h13.62a13.92,13.92,0,1,1-3.79-12.63l4-4.05a19.62,19.62,0,1,0,5.75,13.88V32.77Z"/><path class="cls-1" d="M250.83,64.51a21.41,21.41,0,1,0,21.41,21.41A21.4,21.4,0,0,0,250.83,64.51Zm0,36.7a15.29,15.29,0,1,1,15.29-15.29A15.3,15.3,0,0,1,250.83,101.21Z"/><path class="cls-1" d="M312.43,64.51V85.92h0a15.3,15.3,0,0,1-30.59,0V64.51h-6.11V85.92a21.41,21.41,0,0,0,42.81,0V64.51Z"/><path class="cls-1" d="M328.09,107.41V86h0a15.3,15.3,0,0,1,30.59,0v21.4h6.11V86A21.41,21.41,0,1,0,322,86v21.4Z"/></g></g></svg>