<svg xmlns="http://www.w3.org/2000/svg" viewBox="0 0 442.42 168.92"><defs><style>.cls-1{fill:#494ca2;}</style></defs><title>Fichier 154</title><g id="Calque_2" data-name="Calque 2"><g id="Calque_1-2" data-name="Calque 1"><polygon class="cls-1" points="73.26 90.2 35.51 68.49 39.8 61.03 73.24 80.26 106.62 60.91 110.94 68.36 73.26 90.2"/><rect class="cls-1" x="68.91" y="86.74" width="8.61" height="41.07" transform="translate(-0.19 0.13) rotate(-0.1)"/><path class="cls-1" d="M146.29,42.1,73.07,0,0,42.36l.15,84.46,73.22,42.1,73.07-42.36ZM73.35,158.52,9.15,121.6,9,47.55,73.09,10.41l64.2,36.91.13,74.05Z"/><path class="cls-1" d="M113.25,61.26,73.14,38.19l-40,23.21.08,46.27L73.3,130.73l40-23.21Zm-40,59.06L42.2,102.45l-.07-35.86,31-18,31.09,17.88.06,35.86Z"/><polygon class="cls-1" points="200.24 59.89 185.54 59.9 185.54 59.9 179.66 59.9 179.66 59.9 164.95 59.91 164.96 65.79 179.66 65.78 179.67 95.19 185.55 95.19 185.54 65.78 200.25 65.78 200.24 59.89"/><polygon class="cls-1" points="211.31 89.3 211.3 80.48 240.71 80.47 240.71 74.58 211.3 74.59 211.3 65.77 240.71 65.76 240.71 59.88 211.3 59.89 211.3 59.89 205.41 59.89 205.42 74.6 205.42 74.6 205.42 80.48 205.42 80.48 205.43 95.18 240.72 95.17 240.72 89.29 211.31 89.3"/><polygon class="cls-1" points="442.43 95.1 442.42 89.22 413.01 89.23 413.01 80.41 442.42 80.4 442.42 74.51 413.01 74.52 413.01 65.7 442.42 65.69 442.41 59.81 407.12 59.82 407.12 65.7 407.12 65.7 407.13 77.47 407.13 80.41 407.13 80.41 407.13 89.23 407.13 89.23 407.13 95.11 413.02 95.11 413.02 95.11 442.43 95.1"/><polygon class="cls-1" points="251.77 89.28 251.76 65.76 281.17 65.75 281.17 59.87 251.76 59.88 251.76 59.88 245.88 59.88 245.89 95.17 281.18 95.16 281.18 89.27 251.77 89.28"/><polygon class="cls-1" points="326.61 89.26 326.61 95.14 332.49 95.14 332.49 95.14 356.02 95.13 356.02 95.13 361.9 95.13 361.89 59.84 356.01 59.84 356.02 89.25 332.49 89.26 332.48 59.85 326.6 59.85 326.61 89.26 326.61 89.26"/><polygon class="cls-1" points="315.66 95.14 321.54 95.14 321.54 80.44 321.54 80.44 321.53 74.56 321.53 74.56 321.53 59.85 315.65 59.85 315.65 74.56 292.13 74.57 292.12 59.86 286.24 59.86 286.25 95.16 292.13 95.15 292.13 80.45 315.65 80.44 315.66 95.14"/><path class="cls-1" d="M372.75,95.12h29.41V92.94h0V80.41h0V74.53h-5.89V59.83H366.86V95.13Zm23.53-5.89H372.75V80.42h23.53Zm-5.89-23.52v8.82H372.75V65.72Z"/><path class="cls-1" d="M322.42,106.9v-1h0V105h0v-2.84h0v-1.9H311.05v6.64h0v4.73H313V106.9h3.33l3.73,4.74h2.41l-3.73-4.74ZM313,102.17h7.57V105H313Z"/><polygon class="cls-1" points="297.61 109.75 297.61 105.02 295.71 105.02 295.71 105.02 288.13 105.02 288.13 102.18 297.61 102.17 297.61 100.28 286.24 100.28 286.24 102.18 286.24 102.18 286.24 106.91 288.13 106.91 288.13 106.91 295.71 106.91 295.71 109.75 286.24 109.76 286.24 111.65 297.61 111.65 297.61 109.75 297.61 109.75"/><polygon class="cls-1" points="310.01 109.75 300.54 109.75 300.54 106.91 310.01 106.91 310.01 105.01 300.54 105.02 300.54 102.17 310.01 102.17 310.01 100.28 298.64 100.28 298.65 105.96 298.65 106.91 298.65 106.91 298.65 111.65 300.54 111.65 300.54 111.65 310.01 111.64 310.01 109.75"/><polygon class="cls-1" points="360.1 109.73 360.1 100.26 358.2 100.26 358.2 109.73 350.63 109.73 350.62 100.26 348.73 100.26 348.73 111.63 350.63 111.63 350.63 111.63 358.21 111.63 358.21 111.63 360.1 111.63 360.1 109.73 360.1 109.73"/><polygon class="cls-1" points="403.6 109.72 394.13 109.72 394.13 100.25 392.23 100.25 392.24 111.61 394.13 111.61 394.13 111.61 403.6 111.61 403.6 109.72"/><polygon class="cls-1" points="427.43 109.78 419.85 109.78 419.85 100.31 417.95 100.31 417.95 109.78 417.95 111.67 419.85 111.67 427.43 111.67 429.32 111.67 429.32 109.78 429.32 100.31 427.43 100.31 427.43 109.78"/><path class="cls-1" d="M430.82,100.31v11.37h9.47l1.9-1.9V102.2l-1.9-1.89Zm1.89,9.47V102.2h6.8l.78.79v6l-.78.78Z"/><path class="cls-1" d="M416.47,109.71h0v-7.58h0v-1.89H405.1v1.9h0v7.57h0v1.9h9.46v.07h1.89v-.07h0Zm-9.48,0v-7.57h7.57v7.58Z"/><polygon class="cls-1" points="390.74 109.72 381.26 109.72 381.26 102.14 390.74 102.14 390.73 100.25 379.37 100.25 379.37 102.14 379.37 102.14 379.37 111.62 381.26 111.62 381.26 111.62 390.74 111.61 390.74 109.72"/><polygon class="cls-1" points="347.23 109.73 337.76 109.74 337.76 106.9 347.23 106.89 347.23 105 337.76 105 337.76 102.16 347.23 102.16 347.23 100.26 335.86 100.27 335.87 105.95 335.87 106.9 335.87 106.9 335.87 111.63 337.76 111.63 337.76 111.63 347.24 111.63 347.23 109.73"/><path class="cls-1" d="M373,106.88v-4.73h0v-1.9H361.59v1.89h0V105h0v6.63h1.89v-4.73h3.33l3.73,4.73H373l-3.73-4.73Zm-9.47-4.73h7.58V105h-7.58Z"/><polygon class="cls-1" points="329.14 109.29 325.5 100.27 323.46 100.27 328.05 111.64 330.24 111.64 334.82 100.27 332.78 100.27 329.14 109.29"/></g></g></svg>