<svg xmlns="http://www.w3.org/2000/svg" viewBox="0 0 283.66 182.81"><defs><style>.cls-1{fill:#494ca2;}</style></defs><title>Fichier 151</title><g id="Calque_2" data-name="Calque 2"><g id="Calque_1-2" data-name="Calque 1"><path class="cls-1" d="M29.34.72A15,15,0,0,1,38.79,21a123.11,123.11,0,0,0-9.94,47.47c0,35.68,18.87,56.52,46.12,56.52,25.27,0,39.69-14.43,53.7-50.9,15.63-44.1,38.48-71.37,76.57-71.37,42.1,0,73.37,34.88,73.37,87.39,0,19.18-3.09,34.69-7.25,46.41a14.91,14.91,0,0,1-18.86,9h0a14.91,14.91,0,0,1-9.34-19.15,109,109,0,0,0,6.57-37.43c0-36.87-22-50.91-40.48-50.91C184,38,171.59,54.39,157.13,91.66c-17.63,45.72-39.66,69-79.35,69C36.07,160.61,0,129.75,0,66,0,46,4.51,24.54,11,9.13A15,15,0,0,1,29.09.64Z"/><circle class="cls-1" cx="209.33" cy="82.86" r="16.2"/><circle class="cls-1" cx="70.94" cy="82.86" r="16.2"/><rect class="cls-1" x="185.42" y="156.77" width="4.34" height="26.05"/><rect class="cls-1" x="237.75" y="156.77" width="4.34" height="26.05"/><polygon class="cls-1" points="161.57 176.51 153.37 156.77 148.57 156.77 159.38 182.81 163.75 182.81 174.57 156.77 169.77 156.77 161.57 176.51"/><path class="cls-1" d="M200.57,164.36h0a7.6,7.6,0,0,0,7.6,7.6H219v-4.34H208.17a3.26,3.26,0,0,1-3.26-3.26h0a3.26,3.26,0,0,1,3.26-3.25h18.45v-4.34H208.17A7.59,7.59,0,0,0,200.57,164.36Z"/><path class="cls-1" d="M219,167.62h0V172h0a3.26,3.26,0,0,1,3.26,3.26h0a3.26,3.26,0,0,1-3.26,3.25H200.57v4.34H219a7.59,7.59,0,0,0,7.6-7.59h0A7.6,7.6,0,0,0,219,167.62Z"/><path class="cls-1" d="M272.36,156.87a13,13,0,1,0,11.19,11.2A13,13,0,0,0,272.36,156.87Zm-1.69,20.49a7.6,7.6,0,1,1,7.6-7.6A7.6,7.6,0,0,1,270.67,177.36Z"/></g></g></svg>